<mxfile host="65bd71144e">
    <diagram id="TED20fHFzIkpyyNsSODs" name="PÃ¡gina-1">
        <mxGraphModel dx="1187" dy="1298" grid="1" gridSize="10" guides="1" tooltips="1" connect="1" arrows="1" fold="1" page="0" pageScale="1" pageWidth="1169" pageHeight="827" background="none" math="0" shadow="0">
            <root>
                <mxCell id="0"/>
                <mxCell id="1" parent="0"/>
                <mxCell id="953" value="" style="rounded=0;whiteSpace=wrap;html=1;labelBackgroundColor=default;fontSize=18;fillColor=#bac8d3;strokeColor=default;glass=0;fillOpacity=20;resizable=1;movable=1;rotatable=1;deletable=1;editable=1;connectable=1;strokeOpacity=20;" parent="1" vertex="1">
                    <mxGeometry x="330" y="930" width="6800" height="70" as="geometry"/>
                </mxCell>
                <mxCell id="297" value="19h" style="line;strokeWidth=2;direction=south;html=1;verticalAlign=top;spacingTop=-32;spacingBottom=0;fontStyle=1;fillColor=#485FA8;fontColor=#485FA8;strokeColor=#3C4F8C;labelBackgroundColor=none;dashed=1;" parent="1" vertex="1">
                    <mxGeometry x="2075" y="160" width="10" height="870" as="geometry"/>
                </mxCell>
                <mxCell id="499" value="" style="rounded=0;whiteSpace=wrap;html=1;labelBackgroundColor=default;fontSize=18;fillColor=#bac8d3;strokeColor=default;glass=0;fillOpacity=20;movable=1;resizable=1;rotatable=1;deletable=1;editable=1;connectable=1;strokeWidth=1;perimeterSpacing=0;strokeOpacity=20;" parent="1" vertex="1">
                    <mxGeometry x="330" y="230" width="6800" height="70" as="geometry"/>
                </mxCell>
                <mxCell id="497" value="" style="rounded=0;whiteSpace=wrap;html=1;labelBackgroundColor=default;fontSize=18;fillColor=#bac8d3;strokeColor=default;glass=0;fillOpacity=20;movable=1;resizable=1;rotatable=1;deletable=1;editable=1;connectable=1;strokeOpacity=20;" parent="1" vertex="1">
                    <mxGeometry x="330" y="370" width="6800" height="70" as="geometry"/>
                </mxCell>
                <mxCell id="496" value="" style="rounded=0;whiteSpace=wrap;html=1;labelBackgroundColor=default;fontSize=18;fillColor=#bac8d3;strokeColor=default;glass=0;fillOpacity=20;resizable=1;movable=1;rotatable=1;deletable=1;editable=1;connectable=1;strokeOpacity=20;" parent="1" vertex="1">
                    <mxGeometry x="330" y="510" width="6800" height="70" as="geometry"/>
                </mxCell>
                <mxCell id="435" value="seg&lt;br&gt;0h" style="line;strokeWidth=1;direction=south;html=1;verticalAlign=top;spacingTop=-38;spacingBottom=0;fontStyle=1;fillColor=#647687;fontColor=#647687;strokeColor=#3C4F8C;labelBackgroundColor=none;" parent="1" vertex="1">
                    <mxGeometry x="7075" y="160" width="10" height="870" as="geometry"/>
                </mxCell>
                <mxCell id="250" value="0h" style="line;strokeWidth=1;direction=south;html=1;verticalAlign=top;spacingTop=-32;spacingBottom=0;fontStyle=1" parent="1" vertex="1">
                    <mxGeometry x="355" y="160" width="10" height="870" as="geometry"/>
                </mxCell>
                <mxCell id="251" value="7h" style="line;strokeWidth=1;direction=south;html=1;verticalAlign=top;spacingTop=-32;spacingBottom=0;fontStyle=1;dashed=1;" parent="1" vertex="1">
                    <mxGeometry x="635" y="160" width="10" height="870" as="geometry"/>
                </mxCell>
                <mxCell id="253" value="8h" style="line;strokeWidth=1;direction=south;html=1;verticalAlign=top;spacingTop=-32;spacingBottom=0;fontStyle=1;dashed=1;" parent="1" vertex="1">
                    <mxGeometry x="675" y="160" width="10" height="870" as="geometry"/>
                </mxCell>
                <mxCell id="254" value="9h" style="line;strokeWidth=1;direction=south;html=1;verticalAlign=top;spacingTop=-32;spacingBottom=0;fontStyle=1;dashed=1;" parent="1" vertex="1">
                    <mxGeometry x="715" y="160" width="10" height="870" as="geometry"/>
                </mxCell>
                <mxCell id="255" value="10h" style="line;strokeWidth=1;direction=south;html=1;verticalAlign=top;spacingTop=-32;spacingBottom=0;fontStyle=1;dashed=1;" parent="1" vertex="1">
                    <mxGeometry x="755" y="160" width="10" height="870" as="geometry"/>
                </mxCell>
                <mxCell id="256" value="11h" style="line;strokeWidth=1;direction=south;html=1;verticalAlign=top;spacingTop=-32;spacingBottom=0;fontStyle=1;dashed=1;" parent="1" vertex="1">
                    <mxGeometry x="795" y="160" width="10" height="870" as="geometry"/>
                </mxCell>
                <mxCell id="257" value="&lt;span style=&quot;&quot;&gt;12h&lt;/span&gt;" style="line;strokeWidth=1;direction=south;html=1;verticalAlign=top;spacingTop=-32;spacingBottom=0;fontStyle=1" parent="1" vertex="1">
                    <mxGeometry x="835" y="160" width="10" height="870" as="geometry"/>
                </mxCell>
                <mxCell id="258" value="13h" style="line;strokeWidth=1;direction=south;html=1;verticalAlign=top;spacingTop=-32;spacingBottom=0;fontStyle=1;dashed=1;" parent="1" vertex="1">
                    <mxGeometry x="875" y="160" width="10" height="870" as="geometry"/>
                </mxCell>
                <mxCell id="259" value="20h" style="line;strokeWidth=1;direction=south;html=1;verticalAlign=top;spacingTop=-32;spacingBottom=0;fontStyle=1;dashed=1;" parent="1" vertex="1">
                    <mxGeometry x="1155" y="160" width="10" height="870" as="geometry"/>
                </mxCell>
                <mxCell id="260" value="21h" style="line;strokeWidth=1;direction=south;html=1;verticalAlign=top;spacingTop=-32;spacingBottom=0;fontStyle=1;dashed=1;" parent="1" vertex="1">
                    <mxGeometry x="1195" y="160" width="10" height="870" as="geometry"/>
                </mxCell>
                <mxCell id="261" value="22h" style="line;strokeWidth=1;direction=south;html=1;verticalAlign=top;spacingTop=-32;spacingBottom=0;fontStyle=1;dashed=1;" parent="1" vertex="1">
                    <mxGeometry x="1235" y="160" width="10" height="870" as="geometry"/>
                </mxCell>
                <mxCell id="262" value="23h" style="line;strokeWidth=1;direction=south;html=1;verticalAlign=top;spacingTop=-32;spacingBottom=0;fontStyle=1;dashed=1;" parent="1" vertex="1">
                    <mxGeometry x="1275" y="160" width="10" height="870" as="geometry"/>
                </mxCell>
                <mxCell id="263" value="14h" style="line;strokeWidth=1;direction=south;html=1;verticalAlign=top;spacingTop=-32;spacingBottom=0;fontStyle=1;dashed=1;" parent="1" vertex="1">
                    <mxGeometry x="915" y="160" width="10" height="870" as="geometry"/>
                </mxCell>
                <mxCell id="264" value="15h" style="line;strokeWidth=1;direction=south;html=1;verticalAlign=top;spacingTop=-32;spacingBottom=0;fontStyle=1;dashed=1;" parent="1" vertex="1">
                    <mxGeometry x="955" y="160" width="10" height="870" as="geometry"/>
                </mxCell>
                <mxCell id="265" value="16h" style="line;strokeWidth=1;direction=south;html=1;verticalAlign=top;spacingTop=-32;spacingBottom=0;fontStyle=1;dashed=1;" parent="1" vertex="1">
                    <mxGeometry x="995" y="160" width="10" height="870" as="geometry"/>
                </mxCell>
                <mxCell id="266" value="17h" style="line;strokeWidth=1;direction=south;html=1;verticalAlign=top;spacingTop=-32;spacingBottom=0;fontStyle=1;dashed=1;" parent="1" vertex="1">
                    <mxGeometry x="1035" y="160" width="10" height="870" as="geometry"/>
                </mxCell>
                <mxCell id="267" value="18h" style="line;strokeWidth=1;direction=south;html=1;verticalAlign=top;spacingTop=-32;spacingBottom=0;fontStyle=1" parent="1" vertex="1">
                    <mxGeometry x="1075" y="160" width="10" height="870" as="geometry"/>
                </mxCell>
                <mxCell id="268" value="19h" style="line;strokeWidth=1;direction=south;html=1;verticalAlign=top;spacingTop=-32;spacingBottom=0;fontStyle=1;dashed=1;" parent="1" vertex="1">
                    <mxGeometry x="1115" y="160" width="10" height="870" as="geometry"/>
                </mxCell>
                <mxCell id="269" value="1h" style="line;strokeWidth=1;direction=south;html=1;verticalAlign=top;spacingTop=-32;spacingBottom=0;fontStyle=1;dashed=1;" parent="1" vertex="1">
                    <mxGeometry x="395" y="160" width="10" height="870" as="geometry"/>
                </mxCell>
                <mxCell id="270" value="2h" style="line;strokeWidth=1;direction=south;html=1;verticalAlign=top;spacingTop=-32;spacingBottom=0;fontStyle=1;dashed=1;" parent="1" vertex="1">
                    <mxGeometry x="435" y="160" width="10" height="870" as="geometry"/>
                </mxCell>
                <mxCell id="271" value="3h" style="line;strokeWidth=1;direction=south;html=1;verticalAlign=top;spacingTop=-32;spacingBottom=0;fontStyle=1;dashed=1;" parent="1" vertex="1">
                    <mxGeometry x="475" y="160" width="10" height="870" as="geometry"/>
                </mxCell>
                <mxCell id="272" value="4h" style="line;strokeWidth=1;direction=south;html=1;verticalAlign=top;spacingTop=-32;spacingBottom=0;fontStyle=1;dashed=1;" parent="1" vertex="1">
                    <mxGeometry x="515" y="160" width="10" height="870" as="geometry"/>
                </mxCell>
                <mxCell id="273" value="5h" style="line;strokeWidth=1;direction=south;html=1;verticalAlign=top;spacingTop=-32;spacingBottom=0;fontStyle=1;dashed=1;" parent="1" vertex="1">
                    <mxGeometry x="555" y="160" width="10" height="870" as="geometry"/>
                </mxCell>
                <mxCell id="274" value="6h" style="line;strokeWidth=1;direction=south;html=1;verticalAlign=top;spacingTop=-32;spacingBottom=0;fontStyle=1" parent="1" vertex="1">
                    <mxGeometry x="595" y="160" width="10" height="870" as="geometry"/>
                </mxCell>
                <mxCell id="276" value="seg" style="rounded=0;whiteSpace=wrap;html=1;strokeWidth=1;fontStyle=1;fontSize=22;" parent="1" vertex="1">
                    <mxGeometry x="360" y="80" width="960" height="40" as="geometry"/>
                </mxCell>
                <mxCell id="278" value="ter" style="rounded=0;whiteSpace=wrap;html=1;strokeWidth=1;fontStyle=1;fontSize=22;fillColor=#999999;strokeColor=default;fillOpacity=20;" parent="1" vertex="1">
                    <mxGeometry x="1320" y="80" width="960" height="40" as="geometry"/>
                </mxCell>
                <mxCell id="279" value="0h" style="line;strokeWidth=2;direction=south;html=1;verticalAlign=top;spacingTop=-32;spacingBottom=0;fontStyle=1;fillColor=none;fontColor=#485FA8;strokeColor=#3C4F8C;labelBackgroundColor=none;" parent="1" vertex="1">
                    <mxGeometry x="1315" y="160" width="10" height="870" as="geometry"/>
                </mxCell>
                <mxCell id="280" value="7h" style="line;strokeWidth=2;direction=south;html=1;verticalAlign=top;spacingTop=-32;spacingBottom=0;fontStyle=1;fillColor=none;fontColor=#485FA8;strokeColor=#3C4F8C;labelBackgroundColor=none;dashed=1;" parent="1" vertex="1">
                    <mxGeometry x="1595" y="160" width="10" height="870" as="geometry"/>
                </mxCell>
                <mxCell id="282" value="8h" style="line;strokeWidth=2;direction=south;html=1;verticalAlign=top;spacingTop=-32;spacingBottom=0;fontStyle=1;fillColor=none;fontColor=#485FA8;strokeColor=#3C4F8C;labelBackgroundColor=none;dashed=1;" parent="1" vertex="1">
                    <mxGeometry x="1635" y="160" width="10" height="870" as="geometry"/>
                </mxCell>
                <mxCell id="283" value="9h" style="line;strokeWidth=2;direction=south;html=1;verticalAlign=top;spacingTop=-32;spacingBottom=0;fontStyle=1;fillColor=none;fontColor=#485FA8;strokeColor=#3C4F8C;labelBackgroundColor=none;dashed=1;" parent="1" vertex="1">
                    <mxGeometry x="1675" y="160" width="10" height="870" as="geometry"/>
                </mxCell>
                <mxCell id="284" value="10h" style="line;strokeWidth=2;direction=south;html=1;verticalAlign=top;spacingTop=-32;spacingBottom=0;fontStyle=1;fillColor=none;fontColor=#485FA8;strokeColor=#3C4F8C;labelBackgroundColor=none;dashed=1;" parent="1" vertex="1">
                    <mxGeometry x="1715" y="160" width="10" height="870" as="geometry"/>
                </mxCell>
                <mxCell id="285" value="11h" style="line;strokeWidth=2;direction=south;html=1;verticalAlign=top;spacingTop=-32;spacingBottom=0;fontStyle=1;fillColor=none;fontColor=#485FA8;strokeColor=#3C4F8C;labelBackgroundColor=none;dashed=1;" parent="1" vertex="1">
                    <mxGeometry x="1755" y="160" width="10" height="870" as="geometry"/>
                </mxCell>
                <mxCell id="286" value="12h" style="line;strokeWidth=2;direction=south;html=1;verticalAlign=top;spacingTop=-32;spacingBottom=0;fontStyle=1;fillColor=none;fontColor=#485FA8;strokeColor=#3C4F8C;labelBackgroundColor=none;" parent="1" vertex="1">
                    <mxGeometry x="1795" y="160" width="10" height="870" as="geometry"/>
                </mxCell>
                <mxCell id="287" value="13h" style="line;strokeWidth=2;direction=south;html=1;verticalAlign=top;spacingTop=-32;spacingBottom=0;fontStyle=1;fillColor=none;fontColor=#485FA8;strokeColor=#3C4F8C;labelBackgroundColor=none;dashed=1;" parent="1" vertex="1">
                    <mxGeometry x="1835" y="160" width="10" height="870" as="geometry"/>
                </mxCell>
                <mxCell id="288" value="20h" style="line;strokeWidth=2;direction=south;html=1;verticalAlign=top;spacingTop=-32;spacingBottom=0;fontStyle=1;fillColor=#485FA8;fontColor=#485FA8;strokeColor=#3C4F8C;labelBackgroundColor=none;dashed=1;" parent="1" vertex="1">
                    <mxGeometry x="2115" y="160" width="10" height="870" as="geometry"/>
                </mxCell>
                <mxCell id="289" value="21h" style="line;strokeWidth=2;direction=south;html=1;verticalAlign=top;spacingTop=-32;spacingBottom=0;fontStyle=1;fillColor=#485FA8;fontColor=#485FA8;strokeColor=#3C4F8C;labelBackgroundColor=none;dashed=1;" parent="1" vertex="1">
                    <mxGeometry x="2155" y="160" width="10" height="870" as="geometry"/>
                </mxCell>
                <mxCell id="290" value="22h" style="line;strokeWidth=2;direction=south;html=1;verticalAlign=top;spacingTop=-32;spacingBottom=0;fontStyle=1;fillColor=#485FA8;fontColor=#485FA8;strokeColor=#3C4F8C;labelBackgroundColor=none;dashed=1;" parent="1" vertex="1">
                    <mxGeometry x="2195" y="160" width="10" height="870" as="geometry"/>
                </mxCell>
                <mxCell id="291" value="23h" style="line;strokeWidth=2;direction=south;html=1;verticalAlign=top;spacingTop=-32;spacingBottom=0;fontStyle=1;fillColor=none;fontColor=#485FA8;strokeColor=#3C4F8C;labelBackgroundColor=none;dashed=1;" parent="1" vertex="1">
                    <mxGeometry x="2235" y="160" width="10" height="870" as="geometry"/>
                </mxCell>
                <mxCell id="292" value="14h" style="line;strokeWidth=2;direction=south;html=1;verticalAlign=top;spacingTop=-32;spacingBottom=0;fontStyle=1;fillColor=none;fontColor=#485FA8;strokeColor=#3C4F8C;labelBackgroundColor=none;dashed=1;" parent="1" vertex="1">
                    <mxGeometry x="1875" y="160" width="10" height="870" as="geometry"/>
                </mxCell>
                <mxCell id="293" value="15h" style="line;strokeWidth=2;direction=south;html=1;verticalAlign=top;spacingTop=-32;spacingBottom=0;fontStyle=1;fillColor=none;fontColor=#485FA8;strokeColor=#3C4F8C;labelBackgroundColor=none;dashed=1;" parent="1" vertex="1">
                    <mxGeometry x="1915" y="160" width="10" height="870" as="geometry"/>
                </mxCell>
                <mxCell id="294" value="16h" style="line;strokeWidth=2;direction=south;html=1;verticalAlign=top;spacingTop=-32;spacingBottom=0;fontStyle=1;fillColor=#485FA8;fontColor=#485FA8;strokeColor=#3C4F8C;labelBackgroundColor=none;dashed=1;" parent="1" vertex="1">
                    <mxGeometry x="1955" y="160" width="10" height="870" as="geometry"/>
                </mxCell>
                <mxCell id="295" value="17h" style="line;strokeWidth=2;direction=south;html=1;verticalAlign=top;spacingTop=-32;spacingBottom=0;fontStyle=1;fillColor=#485FA8;fontColor=#485FA8;strokeColor=#3C4F8C;labelBackgroundColor=none;dashed=1;" parent="1" vertex="1">
                    <mxGeometry x="1995" y="160" width="10" height="870" as="geometry"/>
                </mxCell>
                <mxCell id="296" value="18h" style="line;strokeWidth=2;direction=south;html=1;verticalAlign=top;spacingTop=-32;spacingBottom=0;fontStyle=1;fillColor=#485FA8;fontColor=#485FA8;strokeColor=#3C4F8C;labelBackgroundColor=none;" parent="1" vertex="1">
                    <mxGeometry x="2035" y="160" width="10" height="870" as="geometry"/>
                </mxCell>
                <mxCell id="298" value="1h" style="line;strokeWidth=2;direction=south;html=1;verticalAlign=top;spacingTop=-32;spacingBottom=0;fontStyle=1;fillColor=none;fontColor=#485FA8;strokeColor=#3C4F8C;labelBackgroundColor=none;dashed=1;" parent="1" vertex="1">
                    <mxGeometry x="1355" y="160" width="10" height="870" as="geometry"/>
                </mxCell>
                <mxCell id="299" value="2h" style="line;strokeWidth=2;direction=south;html=1;verticalAlign=top;spacingTop=-32;spacingBottom=0;fontStyle=1;fillColor=none;fontColor=#485FA8;strokeColor=#3C4F8C;labelBackgroundColor=none;dashed=1;" parent="1" vertex="1">
                    <mxGeometry x="1395" y="160" width="10" height="870" as="geometry"/>
                </mxCell>
                <mxCell id="300" value="3h" style="line;strokeWidth=2;direction=south;html=1;verticalAlign=top;spacingTop=-32;spacingBottom=0;fontStyle=1;fillColor=none;fontColor=#485FA8;strokeColor=#3C4F8C;labelBackgroundColor=none;dashed=1;" parent="1" vertex="1">
                    <mxGeometry x="1435" y="160" width="10" height="870" as="geometry"/>
                </mxCell>
                <mxCell id="301" value="4h" style="line;strokeWidth=2;direction=south;html=1;verticalAlign=top;spacingTop=-32;spacingBottom=0;fontStyle=1;fillColor=none;fontColor=#485FA8;strokeColor=#3C4F8C;labelBackgroundColor=none;dashed=1;" parent="1" vertex="1">
                    <mxGeometry x="1475" y="160" width="10" height="870" as="geometry"/>
                </mxCell>
                <mxCell id="302" value="5h" style="line;strokeWidth=2;direction=south;html=1;verticalAlign=top;spacingTop=-32;spacingBottom=0;fontStyle=1;fillColor=none;fontColor=#485FA8;strokeColor=#3C4F8C;labelBackgroundColor=none;dashed=1;" parent="1" vertex="1">
                    <mxGeometry x="1515" y="160" width="10" height="870" as="geometry"/>
                </mxCell>
                <mxCell id="303" value="6h" style="line;strokeWidth=2;direction=south;html=1;verticalAlign=top;spacingTop=-32;spacingBottom=0;fontStyle=1;fillColor=none;fontColor=#485FA8;strokeColor=#3C4F8C;labelBackgroundColor=none;" parent="1" vertex="1">
                    <mxGeometry x="1555" y="160" width="10" height="870" as="geometry"/>
                </mxCell>
                <mxCell id="304" value="0h" style="line;strokeWidth=1;direction=south;html=1;verticalAlign=top;spacingTop=-32;spacingBottom=0;fontStyle=1" parent="1" vertex="1">
                    <mxGeometry x="2275" y="160" width="10" height="870" as="geometry"/>
                </mxCell>
                <mxCell id="305" value="7h" style="line;strokeWidth=1;direction=south;html=1;verticalAlign=top;spacingTop=-32;spacingBottom=0;fontStyle=1;dashed=1;" parent="1" vertex="1">
                    <mxGeometry x="2555" y="160" width="10" height="870" as="geometry"/>
                </mxCell>
                <mxCell id="307" value="8h" style="line;strokeWidth=1;direction=south;html=1;verticalAlign=top;spacingTop=-32;spacingBottom=0;fontStyle=1;dashed=1;" parent="1" vertex="1">
                    <mxGeometry x="2595" y="160" width="10" height="870" as="geometry"/>
                </mxCell>
                <mxCell id="308" value="9h" style="line;strokeWidth=1;direction=south;html=1;verticalAlign=top;spacingTop=-32;spacingBottom=0;fontStyle=1;dashed=1;" parent="1" vertex="1">
                    <mxGeometry x="2635" y="160" width="10" height="870" as="geometry"/>
                </mxCell>
                <mxCell id="309" value="10h" style="line;strokeWidth=1;direction=south;html=1;verticalAlign=top;spacingTop=-32;spacingBottom=0;fontStyle=1;dashed=1;" parent="1" vertex="1">
                    <mxGeometry x="2675" y="160" width="10" height="870" as="geometry"/>
                </mxCell>
                <mxCell id="310" value="11h" style="line;strokeWidth=1;direction=south;html=1;verticalAlign=top;spacingTop=-32;spacingBottom=0;fontStyle=1;dashed=1;" parent="1" vertex="1">
                    <mxGeometry x="2715" y="160" width="10" height="870" as="geometry"/>
                </mxCell>
                <mxCell id="311" value="12h" style="line;strokeWidth=1;direction=south;html=1;verticalAlign=top;spacingTop=-32;spacingBottom=0;fontStyle=1" parent="1" vertex="1">
                    <mxGeometry x="2755" y="160" width="10" height="870" as="geometry"/>
                </mxCell>
                <mxCell id="312" value="13h" style="line;strokeWidth=1;direction=south;html=1;verticalAlign=top;spacingTop=-32;spacingBottom=0;fontStyle=1;dashed=1;" parent="1" vertex="1">
                    <mxGeometry x="2795" y="160" width="10" height="870" as="geometry"/>
                </mxCell>
                <mxCell id="313" value="20h" style="line;strokeWidth=1;direction=south;html=1;verticalAlign=top;spacingTop=-32;spacingBottom=0;fontStyle=1;dashed=1;" parent="1" vertex="1">
                    <mxGeometry x="3075" y="160" width="10" height="870" as="geometry"/>
                </mxCell>
                <mxCell id="314" value="21h" style="line;strokeWidth=1;direction=south;html=1;verticalAlign=top;spacingTop=-32;spacingBottom=0;fontStyle=1;dashed=1;" parent="1" vertex="1">
                    <mxGeometry x="3115" y="160" width="10" height="870" as="geometry"/>
                </mxCell>
                <mxCell id="315" value="22h" style="line;strokeWidth=1;direction=south;html=1;verticalAlign=top;spacingTop=-32;spacingBottom=0;fontStyle=1;dashed=1;" parent="1" vertex="1">
                    <mxGeometry x="3155" y="160" width="10" height="870" as="geometry"/>
                </mxCell>
                <mxCell id="316" value="23h" style="line;strokeWidth=1;direction=south;html=1;verticalAlign=top;spacingTop=-32;spacingBottom=0;fontStyle=1;dashed=1;" parent="1" vertex="1">
                    <mxGeometry x="3195" y="160" width="10" height="870" as="geometry"/>
                </mxCell>
                <mxCell id="317" value="14h" style="line;strokeWidth=1;direction=south;html=1;verticalAlign=top;spacingTop=-32;spacingBottom=0;fontStyle=1;dashed=1;" parent="1" vertex="1">
                    <mxGeometry x="2835" y="160" width="10" height="870" as="geometry"/>
                </mxCell>
                <mxCell id="318" value="15h" style="line;strokeWidth=1;direction=south;html=1;verticalAlign=top;spacingTop=-32;spacingBottom=0;fontStyle=1;dashed=1;" parent="1" vertex="1">
                    <mxGeometry x="2875" y="160" width="10" height="870" as="geometry"/>
                </mxCell>
                <mxCell id="319" value="16h" style="line;strokeWidth=1;direction=south;html=1;verticalAlign=top;spacingTop=-32;spacingBottom=0;fontStyle=1;dashed=1;" parent="1" vertex="1">
                    <mxGeometry x="2915" y="160" width="10" height="870" as="geometry"/>
                </mxCell>
                <mxCell id="320" value="17h" style="line;strokeWidth=1;direction=south;html=1;verticalAlign=top;spacingTop=-32;spacingBottom=0;fontStyle=1;dashed=1;" parent="1" vertex="1">
                    <mxGeometry x="2955" y="160" width="10" height="870" as="geometry"/>
                </mxCell>
                <mxCell id="321" value="18h" style="line;strokeWidth=1;direction=south;html=1;verticalAlign=top;spacingTop=-32;spacingBottom=0;fontStyle=1" parent="1" vertex="1">
                    <mxGeometry x="2995" y="160" width="10" height="870" as="geometry"/>
                </mxCell>
                <mxCell id="322" value="19h" style="line;strokeWidth=1;direction=south;html=1;verticalAlign=top;spacingTop=-32;spacingBottom=0;fontStyle=1;dashed=1;" parent="1" vertex="1">
                    <mxGeometry x="3035" y="160" width="10" height="870" as="geometry"/>
                </mxCell>
                <mxCell id="323" value="1h" style="line;strokeWidth=1;direction=south;html=1;verticalAlign=top;spacingTop=-32;spacingBottom=0;fontStyle=1;dashed=1;" parent="1" vertex="1">
                    <mxGeometry x="2315" y="160" width="10" height="870" as="geometry"/>
                </mxCell>
                <mxCell id="324" value="2h" style="line;strokeWidth=1;direction=south;html=1;verticalAlign=top;spacingTop=-32;spacingBottom=0;fontStyle=1;dashed=1;" parent="1" vertex="1">
                    <mxGeometry x="2355" y="160" width="10" height="870" as="geometry"/>
                </mxCell>
                <mxCell id="325" value="3h" style="line;strokeWidth=1;direction=south;html=1;verticalAlign=top;spacingTop=-32;spacingBottom=0;fontStyle=1;dashed=1;" parent="1" vertex="1">
                    <mxGeometry x="2395" y="160" width="10" height="870" as="geometry"/>
                </mxCell>
                <mxCell id="326" value="4h" style="line;strokeWidth=1;direction=south;html=1;verticalAlign=top;spacingTop=-32;spacingBottom=0;fontStyle=1;dashed=1;" parent="1" vertex="1">
                    <mxGeometry x="2435" y="160" width="10" height="870" as="geometry"/>
                </mxCell>
                <mxCell id="327" value="5h" style="line;strokeWidth=1;direction=south;html=1;verticalAlign=top;spacingTop=-32;spacingBottom=0;fontStyle=1;dashed=1;" parent="1" vertex="1">
                    <mxGeometry x="2475" y="160" width="10" height="870" as="geometry"/>
                </mxCell>
                <mxCell id="328" value="6h" style="line;strokeWidth=1;direction=south;html=1;verticalAlign=top;spacingTop=-32;spacingBottom=0;fontStyle=1" parent="1" vertex="1">
                    <mxGeometry x="2515" y="160" width="10" height="870" as="geometry"/>
                </mxCell>
                <mxCell id="329" value="qua" style="rounded=0;whiteSpace=wrap;html=1;strokeWidth=1;fontStyle=1;fontSize=22;" parent="1" vertex="1">
                    <mxGeometry x="2280" y="80" width="960" height="40" as="geometry"/>
                </mxCell>
                <mxCell id="331" value="qui" style="rounded=0;whiteSpace=wrap;html=1;strokeWidth=1;fontStyle=1;fontSize=22;fillColor=#999999;strokeColor=default;fillOpacity=20;" parent="1" vertex="1">
                    <mxGeometry x="3240" y="80" width="960" height="40" as="geometry"/>
                </mxCell>
                <mxCell id="332" value="0h" style="line;strokeWidth=2;direction=south;html=1;verticalAlign=top;spacingTop=-32;spacingBottom=0;fontStyle=1;fillColor=#485FA8;fontColor=#485FA8;strokeColor=#3C4F8C;labelBackgroundColor=none;" parent="1" vertex="1">
                    <mxGeometry x="3235" y="160" width="10" height="870" as="geometry"/>
                </mxCell>
                <mxCell id="333" value="7h" style="line;strokeWidth=2;direction=south;html=1;verticalAlign=top;spacingTop=-32;spacingBottom=0;fontStyle=1;fillColor=#485FA8;fontColor=#485FA8;strokeColor=#3C4F8C;labelBackgroundColor=none;dashed=1;" parent="1" vertex="1">
                    <mxGeometry x="3515" y="160" width="10" height="870" as="geometry"/>
                </mxCell>
                <mxCell id="335" value="8h" style="line;strokeWidth=2;direction=south;html=1;verticalAlign=top;spacingTop=-32;spacingBottom=0;fontStyle=1;fillColor=#485FA8;fontColor=#485FA8;strokeColor=#3C4F8C;labelBackgroundColor=none;dashed=1;" parent="1" vertex="1">
                    <mxGeometry x="3555" y="160" width="10" height="870" as="geometry"/>
                </mxCell>
                <mxCell id="336" value="9h" style="line;strokeWidth=2;direction=south;html=1;verticalAlign=top;spacingTop=-32;spacingBottom=0;fontStyle=1;fillColor=#485FA8;fontColor=#485FA8;strokeColor=#3C4F8C;labelBackgroundColor=none;dashed=1;" parent="1" vertex="1">
                    <mxGeometry x="3595" y="160" width="10" height="870" as="geometry"/>
                </mxCell>
                <mxCell id="337" value="10h" style="line;strokeWidth=2;direction=south;html=1;verticalAlign=top;spacingTop=-32;spacingBottom=0;fontStyle=1;fillColor=#485FA8;fontColor=#485FA8;strokeColor=#3C4F8C;labelBackgroundColor=none;dashed=1;" parent="1" vertex="1">
                    <mxGeometry x="3635" y="160" width="10" height="870" as="geometry"/>
                </mxCell>
                <mxCell id="338" value="11h" style="line;strokeWidth=2;direction=south;html=1;verticalAlign=top;spacingTop=-32;spacingBottom=0;fontStyle=1;fillColor=#485FA8;fontColor=#485FA8;strokeColor=#3C4F8C;labelBackgroundColor=none;dashed=1;" parent="1" vertex="1">
                    <mxGeometry x="3675" y="160" width="10" height="870" as="geometry"/>
                </mxCell>
                <mxCell id="339" value="12h" style="line;strokeWidth=2;direction=south;html=1;verticalAlign=top;spacingTop=-32;spacingBottom=0;fontStyle=1;fillColor=#485FA8;fontColor=#485FA8;strokeColor=#3C4F8C;labelBackgroundColor=none;" parent="1" vertex="1">
                    <mxGeometry x="3715" y="160" width="10" height="870" as="geometry"/>
                </mxCell>
                <mxCell id="340" value="13h" style="line;strokeWidth=2;direction=south;html=1;verticalAlign=top;spacingTop=-32;spacingBottom=0;fontStyle=1;fillColor=#485FA8;fontColor=#485FA8;strokeColor=#3C4F8C;labelBackgroundColor=none;dashed=1;" parent="1" vertex="1">
                    <mxGeometry x="3755" y="160" width="10" height="870" as="geometry"/>
                </mxCell>
                <mxCell id="341" value="20h" style="line;strokeWidth=2;direction=south;html=1;verticalAlign=top;spacingTop=-32;spacingBottom=0;fontStyle=1;fillColor=#485FA8;fontColor=#485FA8;strokeColor=#3C4F8C;labelBackgroundColor=none;dashed=1;" parent="1" vertex="1">
                    <mxGeometry x="4035" y="160" width="10" height="870" as="geometry"/>
                </mxCell>
                <mxCell id="342" value="21h" style="line;strokeWidth=2;direction=south;html=1;verticalAlign=top;spacingTop=-32;spacingBottom=0;fontStyle=1;fillColor=#485FA8;fontColor=#485FA8;strokeColor=#3C4F8C;labelBackgroundColor=none;dashed=1;" parent="1" vertex="1">
                    <mxGeometry x="4075" y="160" width="10" height="870" as="geometry"/>
                </mxCell>
                <mxCell id="343" value="22h" style="line;strokeWidth=2;direction=south;html=1;verticalAlign=top;spacingTop=-32;spacingBottom=0;fontStyle=1;fillColor=#485FA8;fontColor=#485FA8;strokeColor=#3C4F8C;labelBackgroundColor=none;dashed=1;" parent="1" vertex="1">
                    <mxGeometry x="4115" y="160" width="10" height="870" as="geometry"/>
                </mxCell>
                <mxCell id="344" value="23h" style="line;strokeWidth=2;direction=south;html=1;verticalAlign=top;spacingTop=-32;spacingBottom=0;fontStyle=1;fillColor=#485FA8;fontColor=#485FA8;strokeColor=#3C4F8C;labelBackgroundColor=none;dashed=1;" parent="1" vertex="1">
                    <mxGeometry x="4155" y="160" width="10" height="870" as="geometry"/>
                </mxCell>
                <mxCell id="345" value="14h" style="line;strokeWidth=2;direction=south;html=1;verticalAlign=top;spacingTop=-32;spacingBottom=0;fontStyle=1;fillColor=#485FA8;fontColor=#485FA8;strokeColor=#3C4F8C;labelBackgroundColor=none;dashed=1;" parent="1" vertex="1">
                    <mxGeometry x="3795" y="160" width="10" height="870" as="geometry"/>
                </mxCell>
                <mxCell id="346" value="15h" style="line;strokeWidth=2;direction=south;html=1;verticalAlign=top;spacingTop=-32;spacingBottom=0;fontStyle=1;fillColor=#485FA8;fontColor=#485FA8;strokeColor=#3C4F8C;labelBackgroundColor=none;dashed=1;" parent="1" vertex="1">
                    <mxGeometry x="3835" y="160" width="10" height="870" as="geometry"/>
                </mxCell>
                <mxCell id="347" value="16h" style="line;strokeWidth=2;direction=south;html=1;verticalAlign=top;spacingTop=-32;spacingBottom=0;fontStyle=1;fillColor=#485FA8;fontColor=#485FA8;strokeColor=#3C4F8C;labelBackgroundColor=none;dashed=1;" parent="1" vertex="1">
                    <mxGeometry x="3875" y="160" width="10" height="870" as="geometry"/>
                </mxCell>
                <mxCell id="348" value="17h" style="line;strokeWidth=2;direction=south;html=1;verticalAlign=top;spacingTop=-32;spacingBottom=0;fontStyle=1;fillColor=#485FA8;fontColor=#485FA8;strokeColor=#3C4F8C;labelBackgroundColor=none;dashed=1;" parent="1" vertex="1">
                    <mxGeometry x="3915" y="160" width="10" height="870" as="geometry"/>
                </mxCell>
                <mxCell id="349" value="18h" style="line;strokeWidth=2;direction=south;html=1;verticalAlign=top;spacingTop=-32;spacingBottom=0;fontStyle=1;fillColor=#485FA8;fontColor=#485FA8;strokeColor=#3C4F8C;labelBackgroundColor=none;" parent="1" vertex="1">
                    <mxGeometry x="3955" y="160" width="10" height="870" as="geometry"/>
                </mxCell>
                <mxCell id="350" value="19h" style="line;strokeWidth=2;direction=south;html=1;verticalAlign=top;spacingTop=-32;spacingBottom=0;fontStyle=1;fillColor=#485FA8;fontColor=#485FA8;strokeColor=#3C4F8C;labelBackgroundColor=none;dashed=1;" parent="1" vertex="1">
                    <mxGeometry x="3995" y="160" width="10" height="870" as="geometry"/>
                </mxCell>
                <mxCell id="351" value="1h" style="line;strokeWidth=2;direction=south;html=1;verticalAlign=top;spacingTop=-32;spacingBottom=0;fontStyle=1;fillColor=#485FA8;fontColor=#485FA8;strokeColor=#3C4F8C;labelBackgroundColor=none;dashed=1;" parent="1" vertex="1">
                    <mxGeometry x="3275" y="160" width="10" height="870" as="geometry"/>
                </mxCell>
                <mxCell id="352" value="2h" style="line;strokeWidth=2;direction=south;html=1;verticalAlign=top;spacingTop=-32;spacingBottom=0;fontStyle=1;fillColor=#485FA8;fontColor=#485FA8;strokeColor=#3C4F8C;labelBackgroundColor=none;dashed=1;" parent="1" vertex="1">
                    <mxGeometry x="3315" y="160" width="10" height="870" as="geometry"/>
                </mxCell>
                <mxCell id="353" value="3h" style="line;strokeWidth=2;direction=south;html=1;verticalAlign=top;spacingTop=-32;spacingBottom=0;fontStyle=1;fillColor=#485FA8;fontColor=#485FA8;strokeColor=#3C4F8C;labelBackgroundColor=none;dashed=1;" parent="1" vertex="1">
                    <mxGeometry x="3355" y="160" width="10" height="870" as="geometry"/>
                </mxCell>
                <mxCell id="354" value="4h" style="line;strokeWidth=2;direction=south;html=1;verticalAlign=top;spacingTop=-32;spacingBottom=0;fontStyle=1;fillColor=#485FA8;fontColor=#485FA8;strokeColor=#3C4F8C;labelBackgroundColor=none;dashed=1;" parent="1" vertex="1">
                    <mxGeometry x="3395" y="160" width="10" height="870" as="geometry"/>
                </mxCell>
                <mxCell id="355" value="5h" style="line;strokeWidth=2;direction=south;html=1;verticalAlign=top;spacingTop=-32;spacingBottom=0;fontStyle=1;fillColor=#485FA8;fontColor=#485FA8;strokeColor=#3C4F8C;labelBackgroundColor=none;dashed=1;" parent="1" vertex="1">
                    <mxGeometry x="3435" y="160" width="10" height="870" as="geometry"/>
                </mxCell>
                <mxCell id="356" value="6h" style="line;strokeWidth=2;direction=south;html=1;verticalAlign=top;spacingTop=-32;spacingBottom=0;fontStyle=1;fillColor=#485FA8;fontColor=#485FA8;strokeColor=#3C4F8C;labelBackgroundColor=none;" parent="1" vertex="1">
                    <mxGeometry x="3475" y="160" width="10" height="870" as="geometry"/>
                </mxCell>
                <mxCell id="357" value="0h" style="line;strokeWidth=1;direction=south;html=1;verticalAlign=top;spacingTop=-32;spacingBottom=0;fontStyle=1" parent="1" vertex="1">
                    <mxGeometry x="4195" y="160" width="10" height="870" as="geometry"/>
                </mxCell>
                <mxCell id="358" value="7h" style="line;strokeWidth=1;direction=south;html=1;verticalAlign=top;spacingTop=-32;spacingBottom=0;fontStyle=1;dashed=1;" parent="1" vertex="1">
                    <mxGeometry x="4475" y="160" width="10" height="870" as="geometry"/>
                </mxCell>
                <mxCell id="360" value="8h" style="line;strokeWidth=1;direction=south;html=1;verticalAlign=top;spacingTop=-32;spacingBottom=0;fontStyle=1;dashed=1;" parent="1" vertex="1">
                    <mxGeometry x="4515" y="160" width="10" height="870" as="geometry"/>
                </mxCell>
                <mxCell id="361" value="9h" style="line;strokeWidth=1;direction=south;html=1;verticalAlign=top;spacingTop=-32;spacingBottom=0;fontStyle=1;dashed=1;" parent="1" vertex="1">
                    <mxGeometry x="4555" y="160" width="10" height="870" as="geometry"/>
                </mxCell>
                <mxCell id="362" value="10h" style="line;strokeWidth=1;direction=south;html=1;verticalAlign=top;spacingTop=-32;spacingBottom=0;fontStyle=1;dashed=1;" parent="1" vertex="1">
                    <mxGeometry x="4595" y="160" width="10" height="870" as="geometry"/>
                </mxCell>
                <mxCell id="363" value="11h" style="line;strokeWidth=1;direction=south;html=1;verticalAlign=top;spacingTop=-32;spacingBottom=0;fontStyle=1;dashed=1;" parent="1" vertex="1">
                    <mxGeometry x="4635" y="160" width="10" height="870" as="geometry"/>
                </mxCell>
                <mxCell id="364" value="12h" style="line;strokeWidth=1;direction=south;html=1;verticalAlign=top;spacingTop=-32;spacingBottom=0;fontStyle=1" parent="1" vertex="1">
                    <mxGeometry x="4675" y="160" width="10" height="870" as="geometry"/>
                </mxCell>
                <mxCell id="365" value="13h" style="line;strokeWidth=1;direction=south;html=1;verticalAlign=top;spacingTop=-32;spacingBottom=0;fontStyle=1;dashed=1;" parent="1" vertex="1">
                    <mxGeometry x="4715" y="160" width="10" height="870" as="geometry"/>
                </mxCell>
                <mxCell id="366" value="20h" style="line;strokeWidth=1;direction=south;html=1;verticalAlign=top;spacingTop=-32;spacingBottom=0;fontStyle=1;dashed=1;" parent="1" vertex="1">
                    <mxGeometry x="4995" y="160" width="10" height="870" as="geometry"/>
                </mxCell>
                <mxCell id="367" value="21h" style="line;strokeWidth=1;direction=south;html=1;verticalAlign=top;spacingTop=-32;spacingBottom=0;fontStyle=1;dashed=1;" parent="1" vertex="1">
                    <mxGeometry x="5035" y="160" width="10" height="870" as="geometry"/>
                </mxCell>
                <mxCell id="368" value="22h" style="line;strokeWidth=1;direction=south;html=1;verticalAlign=top;spacingTop=-32;spacingBottom=0;fontStyle=1;dashed=1;" parent="1" vertex="1">
                    <mxGeometry x="5075" y="160" width="10" height="870" as="geometry"/>
                </mxCell>
                <mxCell id="369" value="23h" style="line;strokeWidth=1;direction=south;html=1;verticalAlign=top;spacingTop=-32;spacingBottom=0;fontStyle=1;dashed=1;" parent="1" vertex="1">
                    <mxGeometry x="5115" y="160" width="10" height="870" as="geometry"/>
                </mxCell>
                <mxCell id="370" value="14h" style="line;strokeWidth=1;direction=south;html=1;verticalAlign=top;spacingTop=-32;spacingBottom=0;fontStyle=1;dashed=1;" parent="1" vertex="1">
                    <mxGeometry x="4755" y="160" width="10" height="870" as="geometry"/>
                </mxCell>
                <mxCell id="371" value="15h" style="line;strokeWidth=1;direction=south;html=1;verticalAlign=top;spacingTop=-32;spacingBottom=0;fontStyle=1;dashed=1;" parent="1" vertex="1">
                    <mxGeometry x="4795" y="160" width="10" height="870" as="geometry"/>
                </mxCell>
                <mxCell id="372" value="16h" style="line;strokeWidth=1;direction=south;html=1;verticalAlign=top;spacingTop=-32;spacingBottom=0;fontStyle=1;dashed=1;" parent="1" vertex="1">
                    <mxGeometry x="4835" y="160" width="10" height="870" as="geometry"/>
                </mxCell>
                <mxCell id="373" value="17h" style="line;strokeWidth=1;direction=south;html=1;verticalAlign=top;spacingTop=-32;spacingBottom=0;fontStyle=1;dashed=1;" parent="1" vertex="1">
                    <mxGeometry x="4875" y="160" width="10" height="870" as="geometry"/>
                </mxCell>
                <mxCell id="374" value="18h" style="line;strokeWidth=1;direction=south;html=1;verticalAlign=top;spacingTop=-32;spacingBottom=0;fontStyle=1" parent="1" vertex="1">
                    <mxGeometry x="4915" y="160" width="10" height="870" as="geometry"/>
                </mxCell>
                <mxCell id="375" value="19h" style="line;strokeWidth=1;direction=south;html=1;verticalAlign=top;spacingTop=-32;spacingBottom=0;fontStyle=1;dashed=1;" parent="1" vertex="1">
                    <mxGeometry x="4955" y="160" width="10" height="870" as="geometry"/>
                </mxCell>
                <mxCell id="376" value="1h" style="line;strokeWidth=1;direction=south;html=1;verticalAlign=top;spacingTop=-32;spacingBottom=0;fontStyle=1;dashed=1;" parent="1" vertex="1">
                    <mxGeometry x="4235" y="160" width="10" height="870" as="geometry"/>
                </mxCell>
                <mxCell id="377" value="2h" style="line;strokeWidth=1;direction=south;html=1;verticalAlign=top;spacingTop=-32;spacingBottom=0;fontStyle=1;dashed=1;" parent="1" vertex="1">
                    <mxGeometry x="4275" y="160" width="10" height="870" as="geometry"/>
                </mxCell>
                <mxCell id="378" value="3h" style="line;strokeWidth=1;direction=south;html=1;verticalAlign=top;spacingTop=-32;spacingBottom=0;fontStyle=1;dashed=1;" parent="1" vertex="1">
                    <mxGeometry x="4315" y="160" width="10" height="870" as="geometry"/>
                </mxCell>
                <mxCell id="379" value="4h" style="line;strokeWidth=1;direction=south;html=1;verticalAlign=top;spacingTop=-32;spacingBottom=0;fontStyle=1;dashed=1;" parent="1" vertex="1">
                    <mxGeometry x="4355" y="160" width="10" height="870" as="geometry"/>
                </mxCell>
                <mxCell id="380" value="5h" style="line;strokeWidth=1;direction=south;html=1;verticalAlign=top;spacingTop=-32;spacingBottom=0;fontStyle=1;dashed=1;" parent="1" vertex="1">
                    <mxGeometry x="4395" y="160" width="10" height="870" as="geometry"/>
                </mxCell>
                <mxCell id="381" value="6h" style="line;strokeWidth=1;direction=south;html=1;verticalAlign=top;spacingTop=-32;spacingBottom=0;fontStyle=1" parent="1" vertex="1">
                    <mxGeometry x="4435" y="160" width="10" height="870" as="geometry"/>
                </mxCell>
                <mxCell id="382" value="sex" style="rounded=0;whiteSpace=wrap;html=1;strokeWidth=1;fontStyle=1;fontSize=22;" parent="1" vertex="1">
                    <mxGeometry x="4200" y="80" width="960" height="40" as="geometry"/>
                </mxCell>
                <mxCell id="383" value="sÃ¡b" style="rounded=0;whiteSpace=wrap;html=1;strokeWidth=1;fontStyle=1;fontSize=22;fillColor=#999999;strokeColor=default;fillOpacity=20;" parent="1" vertex="1">
                    <mxGeometry x="5160" y="80" width="960" height="40" as="geometry"/>
                </mxCell>
                <mxCell id="384" value="0h" style="line;strokeWidth=2;direction=south;html=1;verticalAlign=top;spacingTop=-32;spacingBottom=0;fontStyle=1;fillColor=#485FA8;fontColor=#485FA8;strokeColor=#3C4F8C;labelBackgroundColor=none;" parent="1" vertex="1">
                    <mxGeometry x="5155" y="160" width="10" height="870" as="geometry"/>
                </mxCell>
                <mxCell id="385" value="7h" style="line;strokeWidth=2;direction=south;html=1;verticalAlign=top;spacingTop=-32;spacingBottom=0;fontStyle=1;fillColor=#485FA8;fontColor=#485FA8;strokeColor=#3C4F8C;labelBackgroundColor=none;dashed=1;" parent="1" vertex="1">
                    <mxGeometry x="5435" y="160" width="10" height="870" as="geometry"/>
                </mxCell>
                <mxCell id="387" value="8h" style="line;strokeWidth=2;direction=south;html=1;verticalAlign=top;spacingTop=-32;spacingBottom=0;fontStyle=1;fillColor=#485FA8;fontColor=#485FA8;strokeColor=#3C4F8C;labelBackgroundColor=none;dashed=1;" parent="1" vertex="1">
                    <mxGeometry x="5475" y="160" width="10" height="870" as="geometry"/>
                </mxCell>
                <mxCell id="388" value="9h" style="line;strokeWidth=2;direction=south;html=1;verticalAlign=top;spacingTop=-32;spacingBottom=0;fontStyle=1;fillColor=#485FA8;fontColor=#485FA8;strokeColor=#3C4F8C;labelBackgroundColor=none;dashed=1;" parent="1" vertex="1">
                    <mxGeometry x="5515" y="160" width="10" height="870" as="geometry"/>
                </mxCell>
                <mxCell id="389" value="10h" style="line;strokeWidth=2;direction=south;html=1;verticalAlign=top;spacingTop=-32;spacingBottom=0;fontStyle=1;fillColor=#485FA8;fontColor=#485FA8;strokeColor=#3C4F8C;labelBackgroundColor=none;dashed=1;" parent="1" vertex="1">
                    <mxGeometry x="5555" y="160" width="10" height="870" as="geometry"/>
                </mxCell>
                <mxCell id="390" value="11h" style="line;strokeWidth=2;direction=south;html=1;verticalAlign=top;spacingTop=-32;spacingBottom=0;fontStyle=1;fillColor=#485FA8;fontColor=#485FA8;strokeColor=#3C4F8C;labelBackgroundColor=none;dashed=1;" parent="1" vertex="1">
                    <mxGeometry x="5595" y="160" width="10" height="870" as="geometry"/>
                </mxCell>
                <mxCell id="391" value="12h" style="line;strokeWidth=2;direction=south;html=1;verticalAlign=top;spacingTop=-32;spacingBottom=0;fontStyle=1;fillColor=#485FA8;fontColor=#485FA8;strokeColor=#3C4F8C;labelBackgroundColor=none;" parent="1" vertex="1">
                    <mxGeometry x="5635" y="160" width="10" height="870" as="geometry"/>
                </mxCell>
                <mxCell id="392" value="13h" style="line;strokeWidth=2;direction=south;html=1;verticalAlign=top;spacingTop=-32;spacingBottom=0;fontStyle=1;fillColor=#485FA8;fontColor=#485FA8;strokeColor=#3C4F8C;labelBackgroundColor=none;dashed=1;" parent="1" vertex="1">
                    <mxGeometry x="5675" y="160" width="10" height="870" as="geometry"/>
                </mxCell>
                <mxCell id="393" value="20h" style="line;strokeWidth=2;direction=south;html=1;verticalAlign=top;spacingTop=-32;spacingBottom=0;fontStyle=1;fillColor=#485FA8;fontColor=#485FA8;strokeColor=#3C4F8C;labelBackgroundColor=none;dashed=1;" parent="1" vertex="1">
                    <mxGeometry x="5955" y="160" width="10" height="870" as="geometry"/>
                </mxCell>
                <mxCell id="394" value="21h" style="line;strokeWidth=2;direction=south;html=1;verticalAlign=top;spacingTop=-32;spacingBottom=0;fontStyle=1;fillColor=#485FA8;fontColor=#485FA8;strokeColor=#3C4F8C;labelBackgroundColor=none;dashed=1;" parent="1" vertex="1">
                    <mxGeometry x="5995" y="160" width="10" height="870" as="geometry"/>
                </mxCell>
                <mxCell id="395" value="22h" style="line;strokeWidth=2;direction=south;html=1;verticalAlign=top;spacingTop=-32;spacingBottom=0;fontStyle=1;fillColor=#485FA8;fontColor=#485FA8;strokeColor=#3C4F8C;labelBackgroundColor=none;dashed=1;" parent="1" vertex="1">
                    <mxGeometry x="6035" y="160" width="10" height="870" as="geometry"/>
                </mxCell>
                <mxCell id="396" value="23h" style="line;strokeWidth=2;direction=south;html=1;verticalAlign=top;spacingTop=-32;spacingBottom=0;fontStyle=1;fillColor=#485FA8;fontColor=#485FA8;strokeColor=#3C4F8C;labelBackgroundColor=none;dashed=1;" parent="1" vertex="1">
                    <mxGeometry x="6075" y="160" width="10" height="870" as="geometry"/>
                </mxCell>
                <mxCell id="397" value="14h" style="line;strokeWidth=2;direction=south;html=1;verticalAlign=top;spacingTop=-32;spacingBottom=0;fontStyle=1;fillColor=#485FA8;fontColor=#485FA8;strokeColor=#3C4F8C;labelBackgroundColor=none;dashed=1;" parent="1" vertex="1">
                    <mxGeometry x="5715" y="160" width="10" height="870" as="geometry"/>
                </mxCell>
                <mxCell id="398" value="15h" style="line;strokeWidth=2;direction=south;html=1;verticalAlign=top;spacingTop=-32;spacingBottom=0;fontStyle=1;fillColor=#485FA8;fontColor=#485FA8;strokeColor=#3C4F8C;labelBackgroundColor=none;dashed=1;" parent="1" vertex="1">
                    <mxGeometry x="5755" y="160" width="10" height="870" as="geometry"/>
                </mxCell>
                <mxCell id="399" value="16h" style="line;strokeWidth=2;direction=south;html=1;verticalAlign=top;spacingTop=-32;spacingBottom=0;fontStyle=1;fillColor=#485FA8;fontColor=#485FA8;strokeColor=#3C4F8C;labelBackgroundColor=none;dashed=1;" parent="1" vertex="1">
                    <mxGeometry x="5795" y="160" width="10" height="870" as="geometry"/>
                </mxCell>
                <mxCell id="400" value="17h" style="line;strokeWidth=2;direction=south;html=1;verticalAlign=top;spacingTop=-32;spacingBottom=0;fontStyle=1;fillColor=#485FA8;fontColor=#485FA8;strokeColor=#3C4F8C;labelBackgroundColor=none;dashed=1;" parent="1" vertex="1">
                    <mxGeometry x="5835" y="160" width="10" height="870" as="geometry"/>
                </mxCell>
                <mxCell id="401" value="18h" style="line;strokeWidth=2;direction=south;html=1;verticalAlign=top;spacingTop=-32;spacingBottom=0;fontStyle=1;fillColor=#485FA8;fontColor=#485FA8;strokeColor=#3C4F8C;labelBackgroundColor=none;" parent="1" vertex="1">
                    <mxGeometry x="5875" y="160" width="10" height="870" as="geometry"/>
                </mxCell>
                <mxCell id="402" value="19h" style="line;strokeWidth=2;direction=south;html=1;verticalAlign=top;spacingTop=-32;spacingBottom=0;fontStyle=1;fillColor=#485FA8;fontColor=#485FA8;strokeColor=#3C4F8C;labelBackgroundColor=none;dashed=1;" parent="1" vertex="1">
                    <mxGeometry x="5915" y="160" width="10" height="870" as="geometry"/>
                </mxCell>
                <mxCell id="403" value="1h" style="line;strokeWidth=2;direction=south;html=1;verticalAlign=top;spacingTop=-32;spacingBottom=0;fontStyle=1;fillColor=#485FA8;fontColor=#485FA8;strokeColor=#3C4F8C;labelBackgroundColor=none;dashed=1;" parent="1" vertex="1">
                    <mxGeometry x="5195" y="160" width="10" height="870" as="geometry"/>
                </mxCell>
                <mxCell id="404" value="2h" style="line;strokeWidth=2;direction=south;html=1;verticalAlign=top;spacingTop=-32;spacingBottom=0;fontStyle=1;fillColor=#485FA8;fontColor=#485FA8;strokeColor=#3C4F8C;labelBackgroundColor=none;dashed=1;" parent="1" vertex="1">
                    <mxGeometry x="5235" y="160" width="10" height="870" as="geometry"/>
                </mxCell>
                <mxCell id="405" value="3h" style="line;strokeWidth=2;direction=south;html=1;verticalAlign=top;spacingTop=-32;spacingBottom=0;fontStyle=1;fillColor=#485FA8;fontColor=#485FA8;strokeColor=#3C4F8C;labelBackgroundColor=none;dashed=1;" parent="1" vertex="1">
                    <mxGeometry x="5275" y="160" width="10" height="870" as="geometry"/>
                </mxCell>
                <mxCell id="406" value="4h" style="line;strokeWidth=2;direction=south;html=1;verticalAlign=top;spacingTop=-32;spacingBottom=0;fontStyle=1;fillColor=#485FA8;fontColor=#485FA8;strokeColor=#3C4F8C;labelBackgroundColor=none;dashed=1;" parent="1" vertex="1">
                    <mxGeometry x="5315" y="160" width="10" height="870" as="geometry"/>
                </mxCell>
                <mxCell id="407" value="5h" style="line;strokeWidth=2;direction=south;html=1;verticalAlign=top;spacingTop=-32;spacingBottom=0;fontStyle=1;fillColor=#485FA8;fontColor=#485FA8;strokeColor=#3C4F8C;labelBackgroundColor=none;dashed=1;" parent="1" vertex="1">
                    <mxGeometry x="5355" y="160" width="10" height="870" as="geometry"/>
                </mxCell>
                <mxCell id="408" value="6h" style="line;strokeWidth=2;direction=south;html=1;verticalAlign=top;spacingTop=-32;spacingBottom=0;fontStyle=1;fillColor=#485FA8;fontColor=#485FA8;strokeColor=#3C4F8C;labelBackgroundColor=none;" parent="1" vertex="1">
                    <mxGeometry x="5395" y="160" width="10" height="870" as="geometry"/>
                </mxCell>
                <mxCell id="409" value="0h" style="line;strokeWidth=1;direction=south;html=1;verticalAlign=top;spacingTop=-32;spacingBottom=0;fontStyle=1" parent="1" vertex="1">
                    <mxGeometry x="6115" y="160" width="10" height="870" as="geometry"/>
                </mxCell>
                <mxCell id="410" value="7h" style="line;strokeWidth=1;direction=south;html=1;verticalAlign=top;spacingTop=-32;spacingBottom=0;fontStyle=1;dashed=1;" parent="1" vertex="1">
                    <mxGeometry x="6395" y="160" width="10" height="870" as="geometry"/>
                </mxCell>
                <mxCell id="412" value="8h" style="line;strokeWidth=1;direction=south;html=1;verticalAlign=top;spacingTop=-32;spacingBottom=0;fontStyle=1;dashed=1;" parent="1" vertex="1">
                    <mxGeometry x="6435" y="160" width="10" height="870" as="geometry"/>
                </mxCell>
                <mxCell id="413" value="9h" style="line;strokeWidth=1;direction=south;html=1;verticalAlign=top;spacingTop=-32;spacingBottom=0;fontStyle=1;dashed=1;" parent="1" vertex="1">
                    <mxGeometry x="6475" y="160" width="10" height="870" as="geometry"/>
                </mxCell>
                <mxCell id="414" value="10h" style="line;strokeWidth=1;direction=south;html=1;verticalAlign=top;spacingTop=-32;spacingBottom=0;fontStyle=1;dashed=1;" parent="1" vertex="1">
                    <mxGeometry x="6515" y="160" width="10" height="870" as="geometry"/>
                </mxCell>
                <mxCell id="415" value="11h" style="line;strokeWidth=1;direction=south;html=1;verticalAlign=top;spacingTop=-32;spacingBottom=0;fontStyle=1;dashed=1;" parent="1" vertex="1">
                    <mxGeometry x="6555" y="160" width="10" height="870" as="geometry"/>
                </mxCell>
                <mxCell id="416" value="12h" style="line;strokeWidth=1;direction=south;html=1;verticalAlign=top;spacingTop=-32;spacingBottom=0;fontStyle=1" parent="1" vertex="1">
                    <mxGeometry x="6595" y="160" width="10" height="870" as="geometry"/>
                </mxCell>
                <mxCell id="417" value="13h" style="line;strokeWidth=1;direction=south;html=1;verticalAlign=top;spacingTop=-32;spacingBottom=0;fontStyle=1;dashed=1;" parent="1" vertex="1">
                    <mxGeometry x="6635" y="160" width="10" height="870" as="geometry"/>
                </mxCell>
                <mxCell id="418" value="20h" style="line;strokeWidth=1;direction=south;html=1;verticalAlign=top;spacingTop=-32;spacingBottom=0;fontStyle=1;dashed=1;" parent="1" vertex="1">
                    <mxGeometry x="6915" y="160" width="10" height="870" as="geometry"/>
                </mxCell>
                <mxCell id="419" value="21h" style="line;strokeWidth=1;direction=south;html=1;verticalAlign=top;spacingTop=-32;spacingBottom=0;fontStyle=1;dashed=1;" parent="1" vertex="1">
                    <mxGeometry x="6955" y="160" width="10" height="870" as="geometry"/>
                </mxCell>
                <mxCell id="420" value="22h" style="line;strokeWidth=1;direction=south;html=1;verticalAlign=top;spacingTop=-32;spacingBottom=0;fontStyle=1;dashed=1;" parent="1" vertex="1">
                    <mxGeometry x="6995" y="160" width="10" height="870" as="geometry"/>
                </mxCell>
                <mxCell id="421" value="23h" style="line;strokeWidth=1;direction=south;html=1;verticalAlign=top;spacingTop=-32;spacingBottom=0;fontStyle=1;dashed=1;" parent="1" vertex="1">
                    <mxGeometry x="7035" y="160" width="10" height="870" as="geometry"/>
                </mxCell>
                <mxCell id="422" value="14h" style="line;strokeWidth=1;direction=south;html=1;verticalAlign=top;spacingTop=-32;spacingBottom=0;fontStyle=1;dashed=1;" parent="1" vertex="1">
                    <mxGeometry x="6675" y="160" width="10" height="870" as="geometry"/>
                </mxCell>
                <mxCell id="423" value="15h" style="line;strokeWidth=1;direction=south;html=1;verticalAlign=top;spacingTop=-32;spacingBottom=0;fontStyle=1;dashed=1;" parent="1" vertex="1">
                    <mxGeometry x="6715" y="160" width="10" height="870" as="geometry"/>
                </mxCell>
                <mxCell id="424" value="16h" style="line;strokeWidth=1;direction=south;html=1;verticalAlign=top;spacingTop=-32;spacingBottom=0;fontStyle=1;dashed=1;" parent="1" vertex="1">
                    <mxGeometry x="6755" y="160" width="10" height="870" as="geometry"/>
                </mxCell>
                <mxCell id="425" value="17h" style="line;strokeWidth=1;direction=south;html=1;verticalAlign=top;spacingTop=-32;spacingBottom=0;fontStyle=1;dashed=1;" parent="1" vertex="1">
                    <mxGeometry x="6795" y="160" width="10" height="870" as="geometry"/>
                </mxCell>
                <mxCell id="426" value="18h" style="line;strokeWidth=1;direction=south;html=1;verticalAlign=top;spacingTop=-32;spacingBottom=0;fontStyle=1" parent="1" vertex="1">
                    <mxGeometry x="6835" y="160" width="10" height="870" as="geometry"/>
                </mxCell>
                <mxCell id="427" value="19h" style="line;strokeWidth=1;direction=south;html=1;verticalAlign=top;spacingTop=-32;spacingBottom=0;fontStyle=1;dashed=1;" parent="1" vertex="1">
                    <mxGeometry x="6875" y="160" width="10" height="870" as="geometry"/>
                </mxCell>
                <mxCell id="428" value="1h" style="line;strokeWidth=1;direction=south;html=1;verticalAlign=top;spacingTop=-32;spacingBottom=0;fontStyle=1;dashed=1;" parent="1" vertex="1">
                    <mxGeometry x="6155" y="160" width="10" height="870" as="geometry"/>
                </mxCell>
                <mxCell id="429" value="2h" style="line;strokeWidth=1;direction=south;html=1;verticalAlign=top;spacingTop=-32;spacingBottom=0;fontStyle=1;dashed=1;" parent="1" vertex="1">
                    <mxGeometry x="6195" y="160" width="10" height="870" as="geometry"/>
                </mxCell>
                <mxCell id="430" value="3h" style="line;strokeWidth=1;direction=south;html=1;verticalAlign=top;spacingTop=-32;spacingBottom=0;fontStyle=1;dashed=1;" parent="1" vertex="1">
                    <mxGeometry x="6235" y="160" width="10" height="870" as="geometry"/>
                </mxCell>
                <mxCell id="431" value="4h" style="line;strokeWidth=1;direction=south;html=1;verticalAlign=top;spacingTop=-32;spacingBottom=0;fontStyle=1;dashed=1;" parent="1" vertex="1">
                    <mxGeometry x="6275" y="160" width="10" height="870" as="geometry"/>
                </mxCell>
                <mxCell id="432" value="5h" style="line;strokeWidth=1;direction=south;html=1;verticalAlign=top;spacingTop=-32;spacingBottom=0;fontStyle=1;dashed=1;" parent="1" vertex="1">
                    <mxGeometry x="6315" y="160" width="10" height="870" as="geometry"/>
                </mxCell>
                <mxCell id="433" value="6h" style="line;strokeWidth=1;direction=south;html=1;verticalAlign=top;spacingTop=-32;spacingBottom=0;fontStyle=1" parent="1" vertex="1">
                    <mxGeometry x="6355" y="160" width="10" height="870" as="geometry"/>
                </mxCell>
                <mxCell id="434" value="dom" style="rounded=0;whiteSpace=wrap;html=1;strokeWidth=1;fontStyle=1;fontSize=22;" parent="1" vertex="1">
                    <mxGeometry x="6120" y="80" width="960" height="40" as="geometry"/>
                </mxCell>
                <mxCell id="926" value="" style="rounded=0;whiteSpace=wrap;html=1;labelBackgroundColor=default;fontSize=18;fillColor=#bac8d3;strokeColor=default;glass=0;fillOpacity=20;resizable=1;movable=1;rotatable=1;deletable=1;editable=1;connectable=1;strokeOpacity=20;" parent="1" vertex="1">
                    <mxGeometry x="330" y="650" width="6800" height="70" as="geometry"/>
                </mxCell>
                <mxCell id="952" value="" style="rounded=0;whiteSpace=wrap;html=1;labelBackgroundColor=default;fontSize=18;fillColor=#bac8d3;strokeColor=default;glass=0;fillOpacity=20;resizable=1;movable=1;rotatable=1;deletable=1;editable=1;connectable=1;strokeOpacity=20;" parent="1" vertex="1">
                    <mxGeometry x="330" y="790" width="6800" height="70" as="geometry"/>
                </mxCell>
                <mxCell id="1052" value="" style="swimlane;childLayout=stackLayout;resizeParent=1;resizeParentMax=0;horizontal=1;startSize=20;horizontalStack=0;html=1;fillStyle=auto;strokeColor=none;fillColor=none;expand=1;collapsible=0;swimlaneLine=1;" parent="1" vertex="1">
                    <mxGeometry x="20" y="140" width="7100" height="860" as="geometry"/>
                </mxCell>
                <mxCell id="1218" style="edgeStyle=none;html=1;" parent="1052" source="1217" target="1128" edge="1">
                    <mxGeometry relative="1" as="geometry"/>
                </mxCell>
                <mxCell id="1209" style="edgeStyle=none;html=1;" parent="1052" source="1200" target="1124" edge="1">
                    <mxGeometry relative="1" as="geometry"/>
                </mxCell>
                <mxCell id="1210" style="edgeStyle=none;html=1;" parent="1052" source="1201" target="1126" edge="1">
                    <mxGeometry relative="1" as="geometry"/>
                </mxCell>
                <mxCell id="1211" style="edgeStyle=none;html=1;" parent="1052" source="1202" target="1127" edge="1">
                    <mxGeometry relative="1" as="geometry"/>
                </mxCell>
                <mxCell id="1212" style="edgeStyle=none;html=1;" parent="1052" source="1203" target="1129" edge="1">
                    <mxGeometry relative="1" as="geometry"/>
                </mxCell>
                <mxCell id="1208" style="edgeStyle=none;html=1;" parent="1052" source="1199" target="1123" edge="1">
                    <mxGeometry relative="1" as="geometry"/>
                </mxCell>
                <mxCell id="1235" style="swimlane;startSize=20;horizontal=0;html=1;fillStyle=auto;strokeColor=none;fillColor=none;swimlaneLine=1;connectable=0;allowArrows=0;expand=1;collapsible=0;" parent="1052" vertex="1">
                    <mxGeometry y="20" width="7100" height="70" as="geometry"/>
                </mxCell>
                <mxCell id="1236" value="&lt;span style=&quot;font-size: 18px; font-weight: 700; text-align: left;&quot;&gt;Atualizar Retorno&lt;/span&gt;&lt;br style=&quot;border-color: var(--border-color); font-size: 18px; font-weight: 700; text-align: left;&quot;&gt;&lt;span style=&quot;font-size: 18px; font-weight: 700; text-align: left;&quot;&gt;(a cada 30m)&lt;/span&gt;" style="rounded=0;whiteSpace=wrap;html=1;fillStyle=auto;strokeColor=default;fillColor=default;" parent="1235" vertex="1">
                    <mxGeometry x="20" width="290" height="70" as="geometry"/>
                </mxCell>
                <mxCell id="1237" value="ð Atualizar Retorno (a cada 30m)" style="rounded=1;whiteSpace=wrap;html=1;align=left;spacingLeft=5;spacingRight=5;strokeWidth=1;cloneable=1;fillColor=#ffff88;strokeColor=#36393d;fontStyle=1;fontColor=#000000;" parent="1235" vertex="1">
                    <mxGeometry x="330" y="15" width="320" height="40" as="geometry"/>
                </mxCell>
                <mxCell id="1238" value="ð Atualizar Retorno (a cada 30m)" style="rounded=1;whiteSpace=wrap;html=1;align=left;spacingLeft=5;spacingRight=5;strokeWidth=1;cloneable=1;fillColor=#ffff88;strokeColor=#36393d;fontStyle=1;fontColor=#000000;" parent="1235" vertex="1">
                    <mxGeometry x="690" y="15" width="920" height="40" as="geometry"/>
                </mxCell>
                <mxCell id="1232" style="swimlane;startSize=20;horizontal=0;html=1;fillStyle=auto;strokeColor=none;fillColor=none;swimlaneLine=1;connectable=0;allowArrows=0;expand=1;collapsible=0;" parent="1052" vertex="1">
                    <mxGeometry y="90" width="7100" height="70" as="geometry"/>
                </mxCell>
                <mxCell id="1233" value="&lt;b style=&quot;border-color: var(--border-color); font-size: 18px;&quot;&gt;Atualizar transaÃ§Ãµes BQ Van&lt;br style=&quot;border-color: var(--border-color);&quot;&gt;(a cada 30m)&lt;/b&gt;" style="rounded=0;whiteSpace=wrap;html=1;fillStyle=auto;strokeColor=default;fillColor=default;" parent="1232" vertex="1">
                    <mxGeometry x="20" width="290" height="70" as="geometry"/>
                </mxCell>
                <mxCell id="1234" value="ð Atualizar transaÃ§Ãµes Van (a cada 30m)&lt;br&gt;" style="rounded=1;whiteSpace=wrap;html=1;align=left;spacingLeft=5;spacingRight=5;strokeWidth=1;cloneable=1;fillColor=#ffff88;strokeColor=#36393d;fontStyle=1;fontColor=#000000;" parent="1232" vertex="1">
                    <mxGeometry x="330" y="15" width="320" height="40" as="geometry"/>
                </mxCell>
                <mxCell id="1239" value="ð Atualizar transaÃ§Ãµes Van (a cada 30m)&lt;br&gt;" style="rounded=1;whiteSpace=wrap;html=1;align=left;spacingLeft=5;spacingRight=5;strokeWidth=1;cloneable=1;fillColor=#ffff88;strokeColor=#36393d;fontStyle=1;fontColor=#000000;" parent="1232" vertex="1">
                    <mxGeometry x="690" y="15" width="920" height="40" as="geometry"/>
                </mxCell>
                <mxCell id="1154" style="swimlane;startSize=20;horizontal=0;html=1;fillStyle=auto;strokeColor=none;fillColor=none;swimlaneLine=1;connectable=0;allowArrows=0;expand=1;collapsible=0;" parent="1052" vertex="1">
                    <mxGeometry y="160" width="7100" height="70" as="geometry"/>
                </mxCell>
                <mxCell id="1155" value="&lt;span style=&quot;font-size: 18px; font-weight: 700;&quot;&gt;Atualizar TransaÃ§Ãµes BQ empresa&lt;/span&gt;&lt;br style=&quot;border-color: var(--border-color); font-size: 18px; font-weight: 700;&quot;&gt;&lt;span style=&quot;font-size: 18px; font-weight: 700;&quot;&gt;(todo dia 5h-5:05)&lt;/span&gt;" style="rounded=0;whiteSpace=wrap;html=1;fillStyle=auto;strokeColor=default;fillColor=default;" parent="1154" vertex="1">
                    <mxGeometry x="20" width="290" height="70" as="geometry"/>
                </mxCell>
                <mxCell id="1156" value="" style="swimlane;startSize=0;fillStyle=auto;strokeColor=none;fillColor=default;collapsible=0;" parent="1154" vertex="1">
                    <mxGeometry x="515" y="15" width="6055" height="40" as="geometry"/>
                </mxCell>
                <mxCell id="1157" value="ð Atualizar TransaÃ§Ãµes BQ empresa" style="rounded=1;html=1;align=left;spacingLeft=20;spacingRight=5;strokeWidth=1;cloneable=1;verticalAlign=middle;spacingTop=0;labelBackgroundColor=default;fillColor=#ffff88;strokeColor=#36393d;fontStyle=1" parent="1156" vertex="1">
                    <mxGeometry x="25" width="10" height="40" as="geometry"/>
                </mxCell>
                <mxCell id="1158" value="ð Atualizar TransaÃ§Ãµes BQ empresa" style="rounded=1;html=1;align=left;spacingLeft=20;spacingRight=5;strokeWidth=1;cloneable=1;verticalAlign=middle;spacingTop=0;labelBackgroundColor=default;fillColor=#ffff88;strokeColor=#36393d;fontStyle=1" parent="1156" vertex="1">
                    <mxGeometry x="2905" width="10" height="40" as="geometry"/>
                </mxCell>
                <mxCell id="1159" value="ð Atualizar TransaÃ§Ãµes BQ empresa" style="rounded=1;html=1;align=left;spacingLeft=20;spacingRight=5;strokeWidth=1;cloneable=1;verticalAlign=middle;spacingTop=0;labelBackgroundColor=default;fillColor=#ffff88;strokeColor=#36393d;fontStyle=1" parent="1156" vertex="1">
                    <mxGeometry x="3865" width="10" height="40" as="geometry"/>
                </mxCell>
                <mxCell id="1160" value="ð Atualizar TransaÃ§Ãµes BQ empresa" style="rounded=1;html=1;align=left;spacingLeft=20;spacingRight=5;strokeWidth=1;cloneable=1;verticalAlign=middle;spacingTop=0;labelBackgroundColor=default;fillColor=#ffff88;strokeColor=#36393d;fontStyle=1" parent="1156" vertex="1">
                    <mxGeometry x="4825" width="10" height="40" as="geometry"/>
                </mxCell>
                <mxCell id="1161" value="ð Atualizar TransaÃ§Ãµes BQ empresa" style="rounded=1;html=1;align=left;spacingLeft=20;spacingRight=5;strokeWidth=1;cloneable=1;verticalAlign=middle;spacingTop=0;labelBackgroundColor=default;fillColor=#ffff88;strokeColor=#36393d;fontStyle=1" parent="1156" vertex="1">
                    <mxGeometry x="5785" width="10" height="40" as="geometry"/>
                </mxCell>
                <mxCell id="1162" value="ð Atualizar TransaÃ§Ãµes BQ empresa" style="rounded=1;html=1;align=left;spacingLeft=20;spacingRight=5;strokeWidth=1;cloneable=1;verticalAlign=middle;spacingTop=0;labelBackgroundColor=default;fillColor=#ffff88;strokeColor=#36393d;fontStyle=1" parent="1156" vertex="1">
                    <mxGeometry x="985" width="10" height="40" as="geometry"/>
                </mxCell>
                <mxCell id="1163" value="ð Atualizar TransaÃ§Ãµes BQ empresa" style="rounded=1;html=1;align=left;spacingLeft=20;spacingRight=5;strokeWidth=1;cloneable=1;verticalAlign=middle;spacingTop=0;labelBackgroundColor=default;fillColor=#ffff88;strokeColor=#36393d;fontStyle=1" parent="1156" vertex="1">
                    <mxGeometry x="1945" width="10" height="40" as="geometry"/>
                </mxCell>
                <mxCell id="1133" style="swimlane;startSize=20;horizontal=0;html=1;fillStyle=auto;strokeColor=none;fillColor=none;swimlaneLine=1;connectable=0;allowArrows=0;expand=1;collapsible=0;" parent="1052" vertex="1">
                    <mxGeometry y="230" width="7100" height="70" as="geometry"/>
                </mxCell>
                <mxCell id="1134" value="&lt;span style=&quot;border-color: var(--border-color); font-size: 15px; font-weight: 700;&quot;&gt;Atualizar TransaÃ§Ãµes BQ VLT&lt;br style=&quot;border-color: var(--border-color);&quot;&gt;&lt;/span&gt;&lt;span style=&quot;font-size: 15px;&quot;&gt;(busca 1 dia antes)&lt;/span&gt;&lt;br style=&quot;border-color: var(--border-color); font-size: 15px; font-weight: 700;&quot;&gt;&lt;b style=&quot;border-color: var(--border-color); font-size: 15px;&quot;&gt;&lt;span style=&quot;border-color: var(--border-color);&quot;&gt;(todo dia, 5:10-5:15&lt;/span&gt;&lt;span style=&quot;border-color: var(--border-color);&quot;&gt;)&lt;/span&gt;&lt;/b&gt;" style="rounded=0;whiteSpace=wrap;html=1;fillStyle=auto;strokeColor=default;fillColor=default;" parent="1133" vertex="1">
                    <mxGeometry x="20" width="290" height="70" as="geometry"/>
                </mxCell>
                <mxCell id="1146" value="" style="swimlane;startSize=0;fillStyle=auto;strokeColor=none;fillColor=default;collapsible=0;" parent="1133" vertex="1">
                    <mxGeometry x="525" y="15" width="6055" height="40" as="geometry"/>
                </mxCell>
                <mxCell id="1148" value="ð Atualizar TransaÃ§Ãµes BQ VLT" style="rounded=1;html=1;align=left;spacingLeft=20;spacingRight=5;strokeWidth=1;cloneable=1;verticalAlign=middle;spacingTop=0;labelBackgroundColor=default;fillColor=#ffff88;strokeColor=#36393d;fontStyle=1" parent="1146" vertex="1">
                    <mxGeometry x="2905" width="10" height="40" as="geometry"/>
                </mxCell>
                <mxCell id="1149" value="ð Atualizar TransaÃ§Ãµes BQ VLT" style="rounded=1;html=1;align=left;spacingLeft=20;spacingRight=5;strokeWidth=1;cloneable=1;verticalAlign=middle;spacingTop=0;labelBackgroundColor=default;fillColor=#ffff88;strokeColor=#36393d;fontStyle=1" parent="1146" vertex="1">
                    <mxGeometry x="3865" width="10" height="40" as="geometry"/>
                </mxCell>
                <mxCell id="1150" value="ð Atualizar TransaÃ§Ãµes BQ VLT" style="rounded=1;html=1;align=left;spacingLeft=20;spacingRight=5;strokeWidth=1;cloneable=1;verticalAlign=middle;spacingTop=0;labelBackgroundColor=default;fillColor=#ffff88;strokeColor=#36393d;fontStyle=1" parent="1146" vertex="1">
                    <mxGeometry x="4825" width="10" height="40" as="geometry"/>
                </mxCell>
                <mxCell id="1151" value="ð Atualizar TransaÃ§Ãµes BQ VLT" style="rounded=1;html=1;align=left;spacingLeft=20;spacingRight=5;strokeWidth=1;cloneable=1;verticalAlign=middle;spacingTop=0;labelBackgroundColor=default;fillColor=#ffff88;strokeColor=#36393d;fontStyle=1" parent="1146" vertex="1">
                    <mxGeometry x="5785" width="10" height="40" as="geometry"/>
                </mxCell>
                <mxCell id="1152" value="ð Atualizar TransaÃ§Ãµes BQ VLT" style="rounded=1;html=1;align=left;spacingLeft=20;spacingRight=5;strokeWidth=1;cloneable=1;verticalAlign=middle;spacingTop=0;labelBackgroundColor=default;fillColor=#ffff88;strokeColor=#36393d;fontStyle=1" parent="1146" vertex="1">
                    <mxGeometry x="985" width="10" height="40" as="geometry"/>
                </mxCell>
                <mxCell id="1153" value="ð Atualizar TransaÃ§Ãµes BQ VLT" style="rounded=1;html=1;align=left;spacingLeft=20;spacingRight=5;strokeWidth=1;cloneable=1;verticalAlign=middle;spacingTop=0;labelBackgroundColor=default;fillColor=#ffff88;strokeColor=#36393d;fontStyle=1" parent="1146" vertex="1">
                    <mxGeometry x="1945" width="10" height="40" as="geometry"/>
                </mxCell>
                <mxCell id="1147" value="ð Atualizar TransaÃ§Ãµes BQ VLT" style="rounded=1;html=1;align=left;spacingLeft=20;spacingRight=5;strokeWidth=1;cloneable=1;verticalAlign=middle;spacingTop=0;labelBackgroundColor=default;fillColor=#ffff88;strokeColor=#36393d;fontStyle=1" parent="1146" vertex="1">
                    <mxGeometry x="25" width="10" height="40" as="geometry"/>
                </mxCell>
                <mxCell id="1219" style="swimlane;startSize=20;horizontal=0;html=1;fillStyle=auto;strokeColor=none;fillColor=none;swimlaneLine=1;connectable=0;allowArrows=0;expand=1;collapsible=0;" parent="1052" vertex="1">
                    <mxGeometry y="300" width="7100" height="70" as="geometry"/>
                </mxCell>
                <mxCell id="1220" value="&lt;span style=&quot;font-size: 18px; font-weight: 700; text-align: left;&quot;&gt;Envio relatÃ³rio estatÃ­stica&lt;/span&gt;&lt;br style=&quot;border-color: var(--border-color); font-size: 18px; font-weight: 700; text-align: left;&quot;&gt;&lt;span style=&quot;font-size: 18px; font-weight: 700; text-align: left;&quot;&gt;(06:00 - 06:01)&lt;/span&gt;" style="rounded=0;whiteSpace=wrap;html=1;fillStyle=auto;strokeColor=default;fillColor=default;" parent="1219" vertex="1">
                    <mxGeometry x="20" width="290" height="70" as="geometry"/>
                </mxCell>
                <mxCell id="1221" value="" style="swimlane;startSize=0;fillStyle=auto;strokeColor=none;fillColor=default;collapsible=0;" parent="1219" vertex="1">
                    <mxGeometry x="555" y="15" width="6055" height="40" as="geometry"/>
                </mxCell>
                <mxCell id="1222" value="ð Envio relatÃ³rio estatÃ­stica" style="rounded=1;html=1;align=left;spacingLeft=20;spacingRight=5;strokeWidth=1;cloneable=1;verticalAlign=middle;spacingTop=0;labelBackgroundColor=default;fillColor=#ffff88;strokeColor=#36393d;fontStyle=1" parent="1221" vertex="1">
                    <mxGeometry x="25" width="10" height="40" as="geometry"/>
                </mxCell>
                <mxCell id="1223" value="ð Envio relatÃ³rio estatÃ­stica" style="rounded=1;html=1;align=left;spacingLeft=20;spacingRight=5;strokeWidth=1;cloneable=1;verticalAlign=middle;spacingTop=0;labelBackgroundColor=default;fillColor=#ffff88;strokeColor=#36393d;fontStyle=1" parent="1221" vertex="1">
                    <mxGeometry x="2905" width="10" height="40" as="geometry"/>
                </mxCell>
                <mxCell id="1224" value="ð Envio relatÃ³rio estatÃ­stica" style="rounded=1;html=1;align=left;spacingLeft=20;spacingRight=5;strokeWidth=1;cloneable=1;verticalAlign=middle;spacingTop=0;labelBackgroundColor=default;fillColor=#ffff88;strokeColor=#36393d;fontStyle=1" parent="1221" vertex="1">
                    <mxGeometry x="3865" width="10" height="40" as="geometry"/>
                </mxCell>
                <mxCell id="1225" value="ð Envio relatÃ³rio estatÃ­stica" style="rounded=1;html=1;align=left;spacingLeft=20;spacingRight=5;strokeWidth=1;cloneable=1;verticalAlign=middle;spacingTop=0;labelBackgroundColor=default;fillColor=#ffff88;strokeColor=#36393d;fontStyle=1" parent="1221" vertex="1">
                    <mxGeometry x="4825" width="10" height="40" as="geometry"/>
                </mxCell>
                <mxCell id="1226" value="ð Envio relatÃ³rio estatÃ­stica" style="rounded=1;html=1;align=left;spacingLeft=20;spacingRight=5;strokeWidth=1;cloneable=1;verticalAlign=middle;spacingTop=0;labelBackgroundColor=default;fillColor=#ffff88;strokeColor=#36393d;fontStyle=1" parent="1221" vertex="1">
                    <mxGeometry x="5785" width="10" height="40" as="geometry"/>
                </mxCell>
                <mxCell id="1227" value="ð Envio relatÃ³rio estatÃ­stica" style="rounded=1;html=1;align=left;spacingLeft=20;spacingRight=5;strokeWidth=1;cloneable=1;verticalAlign=middle;spacingTop=0;labelBackgroundColor=default;fillColor=#ffff88;strokeColor=#36393d;fontStyle=1" parent="1221" vertex="1">
                    <mxGeometry x="985" width="10" height="40" as="geometry"/>
                </mxCell>
                <mxCell id="1228" value="ð Envio relatÃ³rio estatÃ­stica" style="rounded=1;html=1;align=left;spacingLeft=20;spacingRight=5;strokeWidth=1;cloneable=1;verticalAlign=middle;spacingTop=0;labelBackgroundColor=default;fillColor=#ffff88;strokeColor=#36393d;fontStyle=1" parent="1221" vertex="1">
                    <mxGeometry x="1945" width="10" height="40" as="geometry"/>
                </mxCell>
                <mxCell id="1189" style="swimlane;startSize=20;horizontal=0;html=1;fillStyle=auto;strokeColor=none;fillColor=none;swimlaneLine=1;connectable=0;allowArrows=0;expand=1;collapsible=0;" parent="1052" vertex="1">
                    <mxGeometry y="370" width="7100" height="70" as="geometry"/>
                </mxCell>
                <mxCell id="1190" value="&lt;b style=&quot;border-color: var(--border-color); color: rgb(204, 0, 0); font-size: 18px;&quot;&gt;Gerar remessa VLT&lt;br style=&quot;border-color: var(--border-color);&quot;&gt;(seg-sex 08:00 - 08:30)&lt;/b&gt;" style="rounded=0;whiteSpace=wrap;html=1;fillStyle=auto;strokeColor=default;fillColor=default;" parent="1189" vertex="1">
                    <mxGeometry x="20" width="290" height="70" as="geometry"/>
                </mxCell>
                <mxCell id="1191" value="" style="swimlane;startSize=0;fillStyle=auto;strokeColor=none;fillColor=default;collapsible=0;" parent="1189" vertex="1">
                    <mxGeometry x="635" y="15" width="6145" height="40" as="geometry"/>
                </mxCell>
                <mxCell id="1199" value="ð Gerar remessa VLT" style="rounded=1;html=1;align=left;spacingLeft=20;spacingRight=5;strokeWidth=1;cloneable=1;verticalAlign=middle;spacingTop=0;labelBackgroundColor=default;fillColor=#FF084A;strokeColor=#36393d;fontStyle=1" parent="1191" vertex="1">
                    <mxGeometry x="25" width="20" height="40" as="geometry"/>
                </mxCell>
                <mxCell id="1200" value="ð Gerar remessa VLT" style="rounded=1;html=1;align=left;spacingLeft=20;spacingRight=5;strokeWidth=1;cloneable=1;verticalAlign=middle;spacingTop=0;labelBackgroundColor=default;fillColor=#FF084A;strokeColor=#36393d;fontStyle=1" parent="1191" vertex="1">
                    <mxGeometry x="985" width="20" height="40" as="geometry"/>
                </mxCell>
                <mxCell id="1201" value="ð Gerar remessa VLT" style="rounded=1;html=1;align=left;spacingLeft=20;spacingRight=5;strokeWidth=1;cloneable=1;verticalAlign=middle;spacingTop=0;labelBackgroundColor=default;fillColor=#FF084A;strokeColor=#36393d;fontStyle=1" parent="1191" vertex="1">
                    <mxGeometry x="1945" width="20" height="40" as="geometry"/>
                </mxCell>
                <mxCell id="1202" value="ð Gerar remessa VLT" style="rounded=1;html=1;align=left;spacingLeft=20;spacingRight=5;strokeWidth=1;cloneable=1;verticalAlign=middle;spacingTop=0;labelBackgroundColor=default;fillColor=#FF084A;strokeColor=#36393d;fontStyle=1" parent="1191" vertex="1">
                    <mxGeometry x="2905" width="20" height="40" as="geometry"/>
                </mxCell>
                <mxCell id="1203" value="ð Gerar remessa VLT" style="rounded=1;html=1;align=left;spacingLeft=20;spacingRight=5;strokeWidth=1;cloneable=1;verticalAlign=middle;spacingTop=0;labelBackgroundColor=default;fillColor=#FF084A;strokeColor=#36393d;fontStyle=1" parent="1191" vertex="1">
                    <mxGeometry x="3865" width="20" height="40" as="geometry"/>
                </mxCell>
                <mxCell id="1099" style="swimlane;startSize=20;horizontal=0;html=1;fillStyle=auto;strokeColor=none;fillColor=none;connectable=0;allowArrows=0;expand=1;collapsible=0;" parent="1052" vertex="1">
                    <mxGeometry y="440" width="7100" height="70" as="geometry"/>
                </mxCell>
                <mxCell id="1100" value="&lt;span style=&quot;border-color: var(--border-color); font-size: 18px; font-weight: 700;&quot;&gt;Sincronizar TransaÃ§Ãµes Ordem Pgto&lt;/span&gt;&lt;br style=&quot;border-color: var(--border-color); font-size: 18px; font-weight: 700;&quot;&gt;&lt;span style=&quot;border-color: var(--border-color); font-size: 18px; font-weight: 700;&quot;&gt;(apÃ³s gerar cada remessa, 30m)&lt;/span&gt;" style="rounded=0;whiteSpace=wrap;html=1;fillStyle=auto;strokeColor=default;fillColor=default;" parent="1099" vertex="1">
                    <mxGeometry x="20" width="290" height="70" as="geometry"/>
                </mxCell>
                <mxCell id="1101" value="" style="swimlane;startSize=0;fillStyle=auto;strokeColor=none;fillColor=default;collapsible=0;" parent="1099" vertex="1">
                    <mxGeometry x="650" y="15" width="6045" height="40" as="geometry"/>
                </mxCell>
                <mxCell id="1123" value="ð Sincronizar Transacoes Ordem" style="rounded=1;html=1;align=left;spacingLeft=20;spacingRight=5;strokeWidth=1;cloneable=1;verticalAlign=middle;spacingTop=0;labelBackgroundColor=default;fillColor=#ffff88;strokeColor=#36393d;fontStyle=1" parent="1101" vertex="1">
                    <mxGeometry x="30" width="20" height="40" as="geometry"/>
                </mxCell>
                <mxCell id="1124" value="ð Sincronizar Transacoes Ordem" style="rounded=1;html=1;align=left;spacingLeft=20;spacingRight=5;strokeWidth=1;cloneable=1;verticalAlign=middle;spacingTop=0;labelBackgroundColor=default;fillColor=#ffff88;strokeColor=#36393d;fontStyle=1" parent="1101" vertex="1">
                    <mxGeometry x="990" width="20" height="40" as="geometry"/>
                </mxCell>
                <mxCell id="1126" value="ð Sincronizar Transacoes Ordem" style="rounded=1;html=1;align=left;spacingLeft=20;spacingRight=5;strokeWidth=1;cloneable=1;verticalAlign=middle;spacingTop=0;labelBackgroundColor=default;fillColor=#ffff88;strokeColor=#36393d;fontStyle=1" parent="1101" vertex="1">
                    <mxGeometry x="1950" width="20" height="40" as="geometry"/>
                </mxCell>
                <mxCell id="1127" value="ð Sincronizar Transacoes Ordem" style="rounded=1;html=1;align=left;spacingLeft=20;spacingRight=5;strokeWidth=1;cloneable=1;verticalAlign=middle;spacingTop=0;labelBackgroundColor=default;fillColor=#ffff88;strokeColor=#36393d;fontStyle=1" parent="1101" vertex="1">
                    <mxGeometry x="2910" width="20" height="40" as="geometry"/>
                </mxCell>
                <mxCell id="1128" value="ð Sincronizar Transacoes Ordem" style="rounded=1;html=1;align=left;spacingLeft=20;spacingRight=5;strokeWidth=1;cloneable=1;verticalAlign=middle;spacingTop=0;labelBackgroundColor=default;fillColor=#ffff88;strokeColor=#36393d;fontStyle=1" parent="1101" vertex="1">
                    <mxGeometry x="3950" width="20" height="40" as="geometry"/>
                </mxCell>
                <mxCell id="1129" value="" style="rounded=1;html=1;align=left;spacingLeft=20;spacingRight=5;strokeWidth=1;cloneable=1;verticalAlign=middle;spacingTop=0;labelBackgroundColor=default;fillColor=#ffff88;strokeColor=#36393d;fontStyle=1" parent="1101" vertex="1">
                    <mxGeometry x="3870" width="20" height="40" as="geometry"/>
                </mxCell>
                <mxCell id="1187" value="ð Sincronizar Transacoes Ordem" style="rounded=1;html=1;align=left;spacingLeft=20;spacingRight=5;strokeWidth=1;cloneable=1;verticalAlign=middle;spacingTop=0;labelBackgroundColor=default;fillColor=#ffff88;strokeColor=#36393d;fontStyle=1" parent="1101" vertex="1">
                    <mxGeometry x="3270" width="20" height="40" as="geometry"/>
                </mxCell>
                <mxCell id="1215" style="swimlane;startSize=20;horizontal=0;html=1;fillStyle=auto;strokeColor=none;fillColor=none;swimlaneLine=1;connectable=0;allowArrows=0;expand=1;collapsible=0;" parent="1052" vertex="1">
                    <mxGeometry y="510" width="7100" height="70" as="geometry"/>
                </mxCell>
                <mxCell id="1216" value="&lt;b style=&quot;border-color: var(--border-color); color: rgb(204, 0, 0); font-size: 18px;&quot;&gt;Gerar remessa vanzeiros&lt;br style=&quot;border-color: var(--border-color);&quot;&gt;(sex 10:00 - 10:30)&lt;/b&gt;" style="rounded=0;whiteSpace=wrap;html=1;fillStyle=auto;strokeColor=default;fillColor=default;" parent="1215" vertex="1">
                    <mxGeometry x="20" width="290" height="70" as="geometry"/>
                </mxCell>
                <mxCell id="1217" value="ð Gerar remessa vanzeiros" style="rounded=1;html=1;align=left;spacingLeft=20;spacingRight=5;strokeWidth=1;cloneable=1;verticalAlign=middle;spacingTop=0;labelBackgroundColor=default;fillColor=#FF084A;strokeColor=#36393d;fontStyle=1" parent="1215" vertex="1">
                    <mxGeometry x="4580" y="15" width="20" height="40" as="geometry"/>
                </mxCell>
                <mxCell id="1112" style="swimlane;startSize=20;horizontal=0;html=1;fillStyle=auto;strokeColor=none;fillColor=none;connectable=0;allowArrows=0;expand=1;collapsible=0;" parent="1052" vertex="1">
                    <mxGeometry y="580" width="7100" height="70" as="geometry"/>
                </mxCell>
                <mxCell id="1113" value="&lt;span style=&quot;border-color: var(--border-color); font-size: 18px; font-weight: 700;&quot;&gt;Renvio de emails para vanzeiros&lt;/span&gt;&lt;br style=&quot;border-color: var(--border-color); font-size: 18px; font-weight: 700;&quot;&gt;&lt;span style=&quot;border-color: var(--border-color); font-size: 18px; font-weight: 700;&quot;&gt;(dia 15, 11:45 - 11:50)&lt;/span&gt;" style="rounded=0;whiteSpace=wrap;html=1;fillStyle=auto;strokeColor=default;fillColor=default;" parent="1112" vertex="1">
                    <mxGeometry x="20" width="290" height="70" as="geometry"/>
                </mxCell>
                <mxCell id="1114" value="" style="swimlane;startSize=0;fillStyle=auto;strokeColor=none;fillColor=default;collapsible=0;" parent="1112" vertex="1">
                    <mxGeometry x="775" y="15" width="6045" height="40" as="geometry"/>
                </mxCell>
                <mxCell id="1115" value="ð Reenvio email vanzeiros" style="rounded=1;html=1;align=left;spacingLeft=20;spacingRight=5;strokeWidth=1;cloneable=1;verticalAlign=middle;spacingTop=0;labelBackgroundColor=default;fillColor=#ffff88;strokeColor=#36393d;fontStyle=1" parent="1114" vertex="1">
                    <mxGeometry x="30" width="10" height="40" as="geometry"/>
                </mxCell>
                <mxCell id="1116" value="ð Reenvio email vanzeiros" style="rounded=1;html=1;align=left;spacingLeft=20;spacingRight=5;strokeWidth=1;cloneable=1;verticalAlign=middle;spacingTop=0;labelBackgroundColor=default;fillColor=#ffff88;strokeColor=#36393d;fontStyle=1" parent="1114" vertex="1">
                    <mxGeometry x="2910" width="10" height="40" as="geometry"/>
                </mxCell>
                <mxCell id="1117" value="ð Reenvio email vanzeiros" style="rounded=1;html=1;align=left;spacingLeft=20;spacingRight=5;strokeWidth=1;cloneable=1;verticalAlign=middle;spacingTop=0;labelBackgroundColor=default;fillColor=#ffff88;strokeColor=#36393d;fontStyle=1" parent="1114" vertex="1">
                    <mxGeometry x="3870" width="10" height="40" as="geometry"/>
                </mxCell>
                <mxCell id="1118" value="ð Reenvio email vanzeiros" style="rounded=1;html=1;align=left;spacingLeft=20;spacingRight=5;strokeWidth=1;cloneable=1;verticalAlign=middle;spacingTop=0;labelBackgroundColor=default;fillColor=#ffff88;strokeColor=#36393d;fontStyle=1" parent="1114" vertex="1">
                    <mxGeometry x="4830" width="10" height="40" as="geometry"/>
                </mxCell>
                <mxCell id="1120" value="ð Reenvio email vanzeiros" style="rounded=1;html=1;align=left;spacingLeft=20;spacingRight=5;strokeWidth=1;cloneable=1;verticalAlign=middle;spacingTop=0;labelBackgroundColor=default;fillColor=#ffff88;strokeColor=#36393d;fontStyle=1" parent="1114" vertex="1">
                    <mxGeometry x="990" width="10" height="40" as="geometry"/>
                </mxCell>
                <mxCell id="1121" value="ð Reenvio email vanzeiros" style="rounded=1;html=1;align=left;spacingLeft=20;spacingRight=5;strokeWidth=1;cloneable=1;verticalAlign=middle;spacingTop=0;labelBackgroundColor=default;fillColor=#ffff88;strokeColor=#36393d;fontStyle=1" parent="1114" vertex="1">
                    <mxGeometry x="1950" width="10" height="40" as="geometry"/>
                </mxCell>
                <mxCell id="1122" value="ð Reenvio email vanzeiros" style="rounded=1;html=1;align=left;spacingLeft=20;spacingRight=5;strokeWidth=1;cloneable=1;verticalAlign=middle;spacingTop=0;labelBackgroundColor=default;fillColor=#ffff88;strokeColor=#36393d;fontStyle=1" parent="1114" vertex="1">
                    <mxGeometry x="5790" width="10" height="40" as="geometry"/>
                </mxCell>
                <mxCell id="1082" style="swimlane;startSize=20;horizontal=0;html=1;fillStyle=auto;strokeColor=none;fillColor=none;collapsible=0;" parent="1052" vertex="1">
                    <mxGeometry y="650" width="7100" height="70" as="geometry"/>
                </mxCell>
                <mxCell id="1083" value="&lt;span style=&quot;font-size: 15px; font-weight: 700;&quot;&gt;Atualizar TransaÃ§Ãµes com campos nulos do BQ&amp;nbsp;&lt;/span&gt;&lt;span style=&quot;border-color: var(--border-color); font-size: 15px;&quot;&gt;(buscar -8 dias)&lt;/span&gt;&lt;br style=&quot;border-color: var(--border-color); font-size: 15px; font-weight: 700;&quot;&gt;&lt;span style=&quot;font-size: 15px; font-weight: 700;&quot;&gt;(todo dia, 12:00 - 12:10)&lt;/span&gt;" style="rounded=0;whiteSpace=wrap;html=1;fillStyle=auto;strokeColor=default;fillColor=default;" parent="1082" vertex="1">
                    <mxGeometry x="20" width="290" height="70" as="geometry"/>
                </mxCell>
                <mxCell id="1084" value="" style="swimlane;startSize=0;fillStyle=auto;strokeColor=none;fillColor=default;collapsible=0;" parent="1082" vertex="1">
                    <mxGeometry x="795" y="15" width="6055" height="40" as="geometry"/>
                </mxCell>
                <mxCell id="1091" value="ð Atualizar TransaÃ§Ãµes nulos BQ" style="rounded=1;html=1;align=left;spacingLeft=20;spacingRight=5;strokeWidth=1;cloneable=1;verticalAlign=middle;spacingTop=0;labelBackgroundColor=default;fillColor=#ffff88;strokeColor=#36393d;fontStyle=1" parent="1084" vertex="1">
                    <mxGeometry x="25" width="10" height="40" as="geometry"/>
                </mxCell>
                <mxCell id="1094" value="ð Atualizar TransaÃ§Ãµes nulos BQ" style="rounded=1;html=1;align=left;spacingLeft=20;spacingRight=5;strokeWidth=1;cloneable=1;verticalAlign=middle;spacingTop=0;labelBackgroundColor=default;fillColor=#ffff88;strokeColor=#36393d;fontStyle=1" parent="1084" vertex="1">
                    <mxGeometry x="2905" width="10" height="40" as="geometry"/>
                </mxCell>
                <mxCell id="1095" value="ð Atualizar TransaÃ§Ãµes nulos BQ" style="rounded=1;html=1;align=left;spacingLeft=20;spacingRight=5;strokeWidth=1;cloneable=1;verticalAlign=middle;spacingTop=0;labelBackgroundColor=default;fillColor=#ffff88;strokeColor=#36393d;fontStyle=1" parent="1084" vertex="1">
                    <mxGeometry x="3865" width="10" height="40" as="geometry"/>
                </mxCell>
                <mxCell id="1096" value="ð Atualizar TransaÃ§Ãµes nulos BQ" style="rounded=1;html=1;align=left;spacingLeft=20;spacingRight=5;strokeWidth=1;cloneable=1;verticalAlign=middle;spacingTop=0;labelBackgroundColor=default;fillColor=#ffff88;strokeColor=#36393d;fontStyle=1" parent="1084" vertex="1">
                    <mxGeometry x="4825" width="10" height="40" as="geometry"/>
                </mxCell>
                <mxCell id="1097" value="ð Atualizar TransaÃ§Ãµes nulos BQ" style="rounded=1;html=1;align=left;spacingLeft=20;spacingRight=5;strokeWidth=1;cloneable=1;verticalAlign=middle;spacingTop=0;labelBackgroundColor=default;fillColor=#ffff88;strokeColor=#36393d;fontStyle=1" parent="1084" vertex="1">
                    <mxGeometry x="5785" width="10" height="40" as="geometry"/>
                </mxCell>
                <mxCell id="1107" value="ð Atualizar TransaÃ§Ãµes nulos BQ" style="rounded=1;html=1;align=left;spacingLeft=20;spacingRight=5;strokeWidth=1;cloneable=1;verticalAlign=middle;spacingTop=0;labelBackgroundColor=default;fillColor=#ffff88;strokeColor=#36393d;fontStyle=1" parent="1084" vertex="1">
                    <mxGeometry x="985" width="10" height="40" as="geometry"/>
                </mxCell>
                <mxCell id="1110" value="ð Atualizar TransaÃ§Ãµes nulos BQ" style="rounded=1;html=1;align=left;spacingLeft=20;spacingRight=5;strokeWidth=1;cloneable=1;verticalAlign=middle;spacingTop=0;labelBackgroundColor=default;fillColor=#ffff88;strokeColor=#36393d;fontStyle=1" parent="1084" vertex="1">
                    <mxGeometry x="1945" width="10" height="40" as="geometry"/>
                </mxCell>
                <mxCell id="1165" style="swimlane;startSize=20;horizontal=0;html=1;fillStyle=auto;strokeColor=none;fillColor=none;swimlaneLine=1;connectable=0;allowArrows=0;expand=1;collapsible=0;" parent="1052" vertex="1">
                    <mxGeometry y="720" width="7100" height="70" as="geometry"/>
                </mxCell>
                <mxCell id="1176" value="&lt;b style=&quot;border-color: var(--border-color); color: rgb(204, 0, 0); font-size: 18px;&quot;&gt;Gerar remessa consÃ³rcios&lt;br style=&quot;border-color: var(--border-color);&quot;&gt;(toda quinta 17:00 - 17:30)&lt;/b&gt;" style="rounded=0;whiteSpace=wrap;html=1;fillStyle=auto;strokeColor=default;fillColor=default;" parent="1165" vertex="1">
                    <mxGeometry x="20" width="290" height="70" as="geometry"/>
                </mxCell>
                <mxCell id="1186" value="ð Gerar remessa consÃ³rcios" style="rounded=1;html=1;align=left;spacingLeft=20;spacingRight=5;strokeWidth=1;cloneable=1;verticalAlign=middle;spacingTop=0;labelBackgroundColor=default;fillColor=#FF084A;strokeColor=#36393d;fontStyle=1" parent="1165" vertex="1">
                    <mxGeometry x="3900" y="15" width="20" height="40" as="geometry"/>
                </mxCell>
                <mxCell id="1267" value="" style="swimlane;startSize=20;horizontal=0;html=1;fillStyle=auto;strokeColor=none;fillColor=none;swimlaneBody=1;swimlaneHead=1;collapsible=0;dashed=1;" parent="1052" vertex="1">
                    <mxGeometry y="790" width="7100" height="70" as="geometry"/>
                </mxCell>
                <mxCell id="1268" value="&lt;span style=&quot;font-size: 15px; font-weight: 700;&quot;&gt;Envio de email 1o acesso&lt;/span&gt;&lt;br style=&quot;border-color: var(--border-color); font-size: 15px; font-weight: 700;&quot;&gt;&lt;span style=&quot;font-size: 15px; font-weight: 700;&quot;&gt;(todo dia 19:00 - 19:45)&lt;/span&gt;" style="rounded=0;whiteSpace=wrap;html=1;fillStyle=auto;strokeColor=default;fillColor=default;" parent="1267" vertex="1">
                    <mxGeometry x="20" width="290" height="70" as="geometry"/>
                </mxCell>
                <mxCell id="1269" value="" style="swimlane;startSize=0;fillStyle=auto;strokeColor=none;fillColor=default;collapsible=0;" parent="1267" vertex="1">
                    <mxGeometry x="1005" y="15" width="6055" height="40" as="geometry"/>
                </mxCell>
                <mxCell id="1270" value="ð Envio de email 1o acesso" style="rounded=1;html=1;align=left;spacingLeft=40;spacingRight=5;strokeWidth=1;cloneable=1;verticalAlign=middle;spacingTop=0;labelBackgroundColor=default;fillColor=#ffff88;strokeColor=#36393d;fontStyle=1" parent="1269" vertex="1">
                    <mxGeometry x="95" width="30" height="40" as="geometry"/>
                </mxCell>
                <mxCell id="1271" value="ð Envio de email 1o acesso" style="rounded=1;html=1;align=left;spacingLeft=40;spacingRight=5;strokeWidth=1;cloneable=1;verticalAlign=middle;spacingTop=0;labelBackgroundColor=default;fillColor=#ffff88;strokeColor=#36393d;fontStyle=1" parent="1269" vertex="1">
                    <mxGeometry x="4895" width="30" height="39" as="geometry"/>
                </mxCell>
                <mxCell id="1272" value="ð Envio de email 1o acesso" style="rounded=1;html=1;align=left;spacingLeft=40;spacingRight=5;strokeWidth=1;cloneable=1;verticalAlign=middle;spacingTop=0;labelBackgroundColor=default;fillColor=#ffff88;strokeColor=#36393d;fontStyle=1" parent="1269" vertex="1">
                    <mxGeometry x="1975" y="-1" width="30" height="40" as="geometry"/>
                </mxCell>
                <mxCell id="1273" value="ð Envio de email 1o acesso" style="rounded=1;html=1;align=left;spacingLeft=40;spacingRight=5;strokeWidth=1;cloneable=1;verticalAlign=middle;spacingTop=0;labelBackgroundColor=default;fillColor=#ffff88;strokeColor=#36393d;fontStyle=1" parent="1269" vertex="1">
                    <mxGeometry x="2975" width="30" height="40" as="geometry"/>
                </mxCell>
                <mxCell id="1274" value="ð Envio de email 1o acesso" style="rounded=1;html=1;align=left;spacingLeft=40;spacingRight=5;strokeWidth=1;cloneable=1;verticalAlign=middle;spacingTop=0;labelBackgroundColor=default;fillColor=#ffff88;strokeColor=#36393d;fontStyle=1" parent="1269" vertex="1">
                    <mxGeometry x="3935" width="30" height="40" as="geometry"/>
                </mxCell>
                <mxCell id="1275" value="ð Envio de email 1o acesso" style="rounded=1;html=1;align=left;spacingLeft=40;spacingRight=5;strokeWidth=1;cloneable=1;verticalAlign=middle;spacingTop=0;labelBackgroundColor=default;fillColor=#ffff88;strokeColor=#36393d;fontStyle=1" parent="1269" vertex="1">
                    <mxGeometry x="5855" y="-1" width="30" height="40" as="geometry"/>
                </mxCell>
                <mxCell id="1188" style="edgeStyle=none;html=1;" parent="1052" source="1186" target="1187" edge="1">
                    <mxGeometry relative="1" as="geometry"/>
                </mxCell>
                <mxCell id="1249" value="ð Atualizar Retorno (a cada 30m)" style="rounded=1;whiteSpace=wrap;html=1;align=left;spacingLeft=5;spacingRight=5;strokeWidth=1;cloneable=1;fillColor=#ffff88;strokeColor=#36393d;fontStyle=1;fontColor=#000000;" parent="1" vertex="1">
                    <mxGeometry x="1670" y="175" width="920" height="40" as="geometry"/>
                </mxCell>
                <mxCell id="1250" value="ð Atualizar transaÃ§Ãµes Van (a cada 30m)&lt;br&gt;" style="rounded=1;whiteSpace=wrap;html=1;align=left;spacingLeft=5;spacingRight=5;strokeWidth=1;cloneable=1;fillColor=#ffff88;strokeColor=#36393d;fontStyle=1;fontColor=#000000;" parent="1" vertex="1">
                    <mxGeometry x="1670" y="245" width="920" height="40" as="geometry"/>
                </mxCell>
                <mxCell id="1251" value="ð Atualizar Retorno (a cada 30m)" style="rounded=1;whiteSpace=wrap;html=1;align=left;spacingLeft=5;spacingRight=5;strokeWidth=1;cloneable=1;fillColor=#ffff88;strokeColor=#36393d;fontStyle=1;fontColor=#000000;" parent="1" vertex="1">
                    <mxGeometry x="2630" y="175" width="920" height="40" as="geometry"/>
                </mxCell>
                <mxCell id="1252" value="ð Atualizar transaÃ§Ãµes Van (a cada 30m)&lt;br&gt;" style="rounded=1;whiteSpace=wrap;html=1;align=left;spacingLeft=5;spacingRight=5;strokeWidth=1;cloneable=1;fillColor=#ffff88;strokeColor=#36393d;fontStyle=1;fontColor=#000000;" parent="1" vertex="1">
                    <mxGeometry x="2630" y="245" width="920" height="40" as="geometry"/>
                </mxCell>
                <mxCell id="1253" value="ð Atualizar Retorno (a cada 30m)" style="rounded=1;whiteSpace=wrap;html=1;align=left;spacingLeft=5;spacingRight=5;strokeWidth=1;cloneable=1;fillColor=#ffff88;strokeColor=#36393d;fontStyle=1;fontColor=#000000;" parent="1" vertex="1">
                    <mxGeometry x="3590" y="175" width="320" height="40" as="geometry"/>
                </mxCell>
                <mxCell id="1254" value="ð Atualizar transaÃ§Ãµes Van (a cada 30m)&lt;br&gt;" style="rounded=1;whiteSpace=wrap;html=1;align=left;spacingLeft=5;spacingRight=5;strokeWidth=1;cloneable=1;fillColor=#ffff88;strokeColor=#36393d;fontStyle=1;fontColor=#000000;" parent="1" vertex="1">
                    <mxGeometry x="3590" y="245" width="320" height="40" as="geometry"/>
                </mxCell>
                <mxCell id="1255" value="ð Atualizar Retorno (a cada 30m)" style="rounded=1;whiteSpace=wrap;html=1;align=left;spacingLeft=5;spacingRight=5;strokeWidth=1;cloneable=1;fillColor=#ffff88;strokeColor=#36393d;fontStyle=1;fontColor=#000000;" parent="1" vertex="1">
                    <mxGeometry x="3950" y="175" width="560" height="40" as="geometry"/>
                </mxCell>
                <mxCell id="1256" value="ð Atualizar transaÃ§Ãµes Van (a cada 30m)&lt;br&gt;" style="rounded=1;whiteSpace=wrap;html=1;align=left;spacingLeft=5;spacingRight=5;strokeWidth=1;cloneable=1;fillColor=#ffff88;strokeColor=#36393d;fontStyle=1;fontColor=#000000;" parent="1" vertex="1">
                    <mxGeometry x="3950" y="245" width="560" height="40" as="geometry"/>
                </mxCell>
                <mxCell id="1257" value="" style="rounded=1;whiteSpace=wrap;html=1;align=left;spacingLeft=5;spacingRight=5;strokeWidth=1;cloneable=1;fillColor=#ffff88;strokeColor=#36393d;fontStyle=1;fontColor=#000000;" parent="1" vertex="1">
                    <mxGeometry x="4550" y="175" width="40" height="40" as="geometry"/>
                </mxCell>
                <mxCell id="1258" value="" style="rounded=1;whiteSpace=wrap;html=1;align=left;spacingLeft=5;spacingRight=5;strokeWidth=1;cloneable=1;fillColor=#ffff88;strokeColor=#36393d;fontStyle=1;fontColor=#000000;" parent="1" vertex="1">
                    <mxGeometry x="4550" y="245" width="40" height="40" as="geometry"/>
                </mxCell>
                <mxCell id="1259" value="ð Atualizar Retorno (a cada 30m)" style="rounded=1;whiteSpace=wrap;html=1;align=left;spacingLeft=5;spacingRight=5;strokeWidth=1;cloneable=1;fillColor=#ffff88;strokeColor=#36393d;fontStyle=1;fontColor=#000000;" parent="1" vertex="1">
                    <mxGeometry x="4630" y="175" width="2460" height="40" as="geometry"/>
                </mxCell>
                <mxCell id="1260" value="ð Atualizar transaÃ§Ãµes Van (a cada 30m)&lt;br&gt;" style="rounded=1;whiteSpace=wrap;html=1;align=left;spacingLeft=5;spacingRight=5;strokeWidth=1;cloneable=1;fillColor=#ffff88;strokeColor=#36393d;fontStyle=1;fontColor=#000000;" parent="1" vertex="1">
                    <mxGeometry x="4630" y="245" width="2460" height="40" as="geometry"/>
                </mxCell>
                <mxCell id="1280" value="" style="endArrow=none;html=1;fontColor=#485FA8;" parent="1" edge="1">
                    <mxGeometry width="50" height="50" relative="1" as="geometry">
                        <mxPoint x="40" y="40" as="sourcePoint"/>
                        <mxPoint x="60" y="40" as="targetPoint"/>
                    </mxGeometry>
                </mxCell>
                <mxCell id="1281" value="" style="endArrow=none;html=1;fontColor=#485FA8;" parent="1" edge="1">
                    <mxGeometry width="50" height="50" relative="1" as="geometry">
                        <mxPoint x="40" y="40" as="sourcePoint"/>
                        <mxPoint x="40" y="60" as="targetPoint"/>
                    </mxGeometry>
                </mxCell>
            </root>
        </mxGraphModel>
    </diagram>
</mxfile>